<svg width="1027" height="228" viewBox="0 0 1027 228" fill="none" xmlns="http://www.w3.org/2000/svg">
<path d="M1025.89 48.3348L1026.52 51.9048C1020.2 49.3448 1015.72 47.8348 1009.13 48.9548C1001.6 49.3481 994.648 51.7481 988.281 56.1548C986.354 57.4948 983.611 59.7581 980.051 62.9448C971.938 70.9181 964.611 79.6014 958.071 88.9948L946.551 105.295L919.851 147.225C916.611 151.995 913.991 156.555 909.461 160.315C909.694 158.788 910.508 157.661 911.901 156.935C911.996 156.887 912.072 156.808 912.117 156.711C912.162 156.615 912.172 156.505 912.146 156.402C912.121 156.298 912.061 156.207 911.976 156.142C911.892 156.077 911.788 156.043 911.681 156.045H905.921C905.808 156.044 905.697 156.013 905.599 155.956C905.501 155.899 905.42 155.818 905.364 155.72C905.307 155.622 905.277 155.511 905.277 155.398C905.276 155.285 905.305 155.173 905.361 155.075C912.121 143.455 922.831 127.915 930.991 114.805C933.191 111.258 936.494 106.008 940.901 99.0548C941.514 98.0814 942.018 96.4214 942.411 94.0748C942.724 94.5348 943.058 94.8414 943.411 94.9948C943.557 95.0582 943.72 95.0679 943.872 95.0221C944.024 94.9763 944.155 94.878 944.241 94.7448C952.548 81.7581 962.138 69.8048 973.011 58.8848C973.964 57.9248 975.878 56.2548 978.751 53.8748L987.441 46.6948C988.161 46.5748 988.498 46.2181 988.451 45.6248C988.439 45.4684 988.376 45.3209 988.27 45.2064C988.165 45.0918 988.024 45.0172 987.871 44.9948C978.551 43.7148 972.624 42.7548 970.091 42.1148C957.164 38.8414 946.784 35.7848 938.951 32.9448C928.551 29.1848 917.328 23.8214 905.281 16.8548C905.147 16.7757 904.994 16.7333 904.836 16.7315C904.678 16.7298 904.522 16.7688 904.381 16.8448L900.321 19.0048C896.648 20.7314 892.958 22.4848 889.251 24.2648C867.878 34.5314 846.528 41.0048 825.201 43.6848C823.494 43.8981 822.111 44.0514 821.051 44.1448C820.904 44.1594 820.768 44.2267 820.669 44.3336C820.569 44.4406 820.513 44.5798 820.511 44.7248C820.361 57.9548 820.451 71.1148 820.391 84.2948C820.364 91.1081 820.694 97.9381 821.381 104.785C818.748 116.445 819.418 127.948 823.391 139.295C827.564 151.208 833.011 162.508 839.731 173.195C847.384 185.361 856.444 195.311 866.911 203.045C875.418 209.325 883.904 215.668 892.371 222.075C872.811 212.575 856.124 200.261 842.311 185.135C832.098 173.955 823.998 160.705 818.011 145.385L812.751 129.945L808.751 110.675L807.141 91.2448L807.441 37.5148L807.611 32.7848C807.613 32.6519 807.665 32.524 807.756 32.4248C807.848 32.3255 807.974 32.2616 808.111 32.2448C826.198 30.0114 843.998 26.1148 861.511 20.5548C869.571 17.9948 876.794 15.0381 883.181 11.6848C888.841 8.71811 895.711 4.89477 903.791 0.214775C904.043 0.0676051 904.33 -0.00660346 904.622 0.000461264C904.913 0.00752599 905.197 0.0955859 905.441 0.254776C914.248 6.03478 922.698 10.9081 930.791 14.8748C937.781 18.3048 948.671 22.5248 957.881 25.0348C973.134 29.2081 988.398 32.0114 1003.67 33.4448C1003.92 33.4696 1004.15 33.5859 1004.32 33.7708C1004.49 33.9557 1004.58 34.196 1004.58 34.4448V40.6148C1004.58 40.7091 1004.6 40.8023 1004.64 40.8877C1004.68 40.9731 1004.74 41.0487 1004.81 41.1089C1004.88 41.1691 1004.96 41.2125 1005.05 41.236C1005.14 41.2595 1005.23 41.2625 1005.32 41.2448C1008.02 40.7548 1011.49 40.5948 1013.47 40.5648C1019.16 40.4648 1023.3 43.0548 1025.89 48.3348Z" fill="white"/>
<path d="M987.441 46.6948C979.911 45.0148 971.441 43.9748 964.771 42.2548C955.551 39.8748 946.948 37.2048 938.961 34.2448C936.241 33.2448 933.891 31.9148 931.191 31.0148C923.524 28.4748 916.021 24.7148 908.681 19.7348C907.961 19.2481 906.744 18.7348 905.031 18.1948C904.873 18.144 904.706 18.125 904.541 18.1387C904.377 18.1525 904.217 18.1987 904.071 18.2748L900.121 20.3348C900.501 20.0148 900.874 19.6881 901.241 19.3548C901.401 19.2081 901.094 19.0914 900.321 19.0048L904.381 16.8448C904.522 16.7688 904.678 16.7298 904.836 16.7315C904.994 16.7333 905.147 16.7757 905.281 16.8548C917.328 23.8214 928.551 29.1848 938.951 32.9448C946.784 35.7848 957.164 38.8414 970.091 42.1148C972.624 42.7548 978.551 43.7148 987.871 44.9948C988.024 45.0172 988.165 45.0918 988.27 45.2064C988.376 45.3209 988.439 45.4684 988.451 45.6248C988.498 46.2181 988.161 46.5748 987.441 46.6948Z" fill="#6332B3"/>
<path d="M987.441 46.6948L978.751 53.8748C976.911 53.3248 974.851 52.5748 973.061 52.3748C966.761 51.6481 960.971 50.3681 955.691 48.5348C944.951 44.8148 934.781 42.3148 924.981 37.2248C922.568 35.9714 917.211 32.9814 908.911 28.2548C904.431 27.3148 898.661 26.4648 895.301 22.9948L900.121 20.3348L904.071 18.2748C904.217 18.1987 904.377 18.1525 904.541 18.1387C904.706 18.125 904.873 18.144 905.031 18.1948C906.744 18.7348 907.961 19.2481 908.681 19.7348C916.021 24.7148 923.524 28.4748 931.191 31.0148C933.891 31.9148 936.241 33.2448 938.961 34.2448C946.948 37.2048 955.551 39.8748 964.771 42.2548C971.441 43.9748 979.911 45.0148 987.441 46.6948Z" fill="#773FCB"/>
<path d="M900.321 19.0048C901.094 19.0914 901.401 19.2081 901.241 19.3548C900.874 19.6881 900.501 20.0148 900.121 20.3348L895.301 22.9948C887.021 27.4481 878.418 31.1514 869.491 34.1048C863.771 35.9914 858.044 37.8514 852.311 39.6848C847.158 41.3314 839.564 42.9314 829.531 44.4848L822.891 45.3348C822.599 45.3719 822.332 45.5176 822.141 45.7433C821.951 45.9689 821.851 46.2583 821.861 46.5548C822.201 55.6248 822.101 62.5948 822.431 71.0348C822.511 73.0014 822.474 75.8348 822.321 79.5348C821.961 88.3014 822.271 97.6714 823.251 107.645C824.311 114.685 825.724 121.545 827.491 128.225C828.881 133.445 831.591 138.385 833.371 143.005C834.371 145.605 835.761 148.508 837.541 151.715C841.871 159.555 846.311 167.185 850.171 171.355C854.158 175.675 856.998 178.811 858.691 180.765C860.461 182.815 862.571 184.035 864.251 186.035C865.164 187.115 866.511 188.311 868.291 189.625C877.491 196.431 883.558 200.605 886.491 202.145C892.104 205.078 897.958 208.338 904.051 211.925C904.34 212.091 904.68 212.141 905.001 212.065C906.441 211.711 907.804 210.775 909.091 209.255C909.182 209.144 909.25 209.016 909.289 208.879C909.329 208.741 909.34 208.597 909.321 208.455C909.021 206.301 908.298 204.238 907.151 202.265C907.082 202.148 906.974 202.06 906.845 202.016C906.717 201.972 906.577 201.975 906.451 202.025C904.061 202.965 902.401 201.665 900.391 200.815C898.991 200.221 894.641 197.748 887.341 193.395C883.214 190.928 879.121 188.058 875.061 184.785C868.961 179.858 865.148 176.541 863.621 174.835C856.948 167.348 852.374 161.591 849.901 157.565C848.961 156.045 847.614 153.841 845.861 150.955C844.681 149.021 843.508 146.718 842.341 144.045C839.948 138.578 838.281 134.448 837.341 131.655C835.388 125.828 833.714 118.628 832.321 110.055C830.868 101.881 830.124 95.3748 830.091 90.5348C830.011 78.8814 829.991 67.2281 830.031 55.5748L830.131 52.8048C830.136 52.6588 830.192 52.5192 830.288 52.4098C830.385 52.3003 830.517 52.2279 830.661 52.2048C845.594 49.8514 860.214 46.2381 874.521 41.3648C875.628 40.9914 877.431 40.2148 879.931 39.0348C882.231 42.9414 884.198 45.7181 885.831 47.3648C890.531 52.1048 896.841 51.4748 902.911 50.8948C903.118 50.8748 903.111 50.9048 902.891 50.9848C902.865 50.9977 902.837 51.0012 902.811 50.9948C901.998 50.9414 901.398 51.0414 901.011 51.2948C890.731 53.2481 884.331 58.6581 881.811 67.5248C881.151 69.8448 880.814 73.4681 880.801 78.3948C880.788 82.0414 880.751 85.6981 880.691 89.3648C879.038 89.6048 877.328 89.6914 875.561 89.6248C873.308 89.5381 871.738 89.7314 870.851 90.2048C868.364 91.5514 866.594 93.6681 865.541 96.5548C865.462 96.7728 865.424 97.0069 865.431 97.2448C865.611 112.198 865.588 125.795 865.361 138.035C865.231 145.475 868.821 153.435 877.041 154.855L878.831 155.505C881.084 157.331 882.551 158.825 883.231 159.985C886.558 165.671 890.244 171.028 894.291 176.055C896.038 178.055 897.784 180.011 899.531 181.925C902.611 185.298 906.121 187.915 910.061 189.775C915.011 192.255 923.291 194.485 928.171 191.745C933.641 188.675 937.011 181.835 939.981 175.895C944.888 166.088 950.271 156.588 956.131 147.395L961.151 147.415L963.891 147.425C963.982 147.424 964.072 147.448 964.151 147.493C964.23 147.539 964.296 147.605 964.341 147.686C964.387 147.766 964.411 147.857 964.411 147.95C964.411 148.042 964.387 148.134 964.341 148.215C957.991 159.195 951.131 168.955 942.731 177.545C940.131 180.205 938.038 182.845 936.451 185.465C934.791 188.205 934.224 190.921 934.751 193.615C934.776 193.744 934.834 193.864 934.919 193.965C935.004 194.065 935.114 194.142 935.237 194.189C935.361 194.236 935.495 194.251 935.627 194.233C935.759 194.215 935.884 194.164 935.991 194.085C955.658 179.105 969.914 160.298 978.761 137.665C980.321 133.671 982.308 127.131 984.721 118.045C984.792 117.787 984.767 117.514 984.651 117.275L983.851 115.515L987.321 108.865C987.345 108.816 987.383 108.775 987.43 108.748C987.477 108.72 987.531 108.707 987.587 108.709C987.642 108.711 987.696 108.728 987.743 108.76C987.789 108.791 987.827 108.834 987.851 108.885C987.998 109.218 988.031 109.638 987.951 110.145C986.701 115.665 985.611 121.605 984.061 126.675C975.294 155.281 959.021 178.495 935.241 196.315C927.421 202.175 917.681 206.955 908.131 211.515C907.591 211.775 906.754 212.231 905.621 212.885C905.475 212.969 905.31 213.017 905.14 213.025C904.97 213.034 904.799 213.003 904.641 212.935C896.931 209.455 891.441 206.155 885.041 202.695C881.521 200.788 876.134 197.011 868.881 191.365C856.481 181.705 846.288 169.938 838.301 156.065C831.554 144.358 826.481 131.201 823.081 116.595C822.608 114.541 822.041 110.605 821.381 104.785C820.694 97.9381 820.364 91.1081 820.391 84.2948C820.451 71.1148 820.361 57.9548 820.511 44.7248C820.513 44.5798 820.569 44.4406 820.669 44.3336C820.768 44.2267 820.904 44.1594 821.051 44.1448C822.111 44.0514 823.494 43.8981 825.201 43.6848C846.528 41.0048 867.878 34.5314 889.251 24.2648C892.958 22.4848 896.648 20.7314 900.321 19.0048Z" fill="#411E88"/>
<path d="M895.301 22.9948C898.661 26.4648 904.431 27.3148 908.911 28.2548C904.864 27.7214 900.874 28.5781 896.941 30.8248C891.854 33.7248 886.184 36.4614 879.931 39.0348C877.431 40.2148 875.628 40.9914 874.521 41.3648C860.214 46.2381 845.594 49.8514 830.661 52.2048C830.517 52.2279 830.385 52.3003 830.288 52.4098C830.192 52.5192 830.136 52.6588 830.131 52.8048L830.031 55.5748C829.721 51.5648 830.861 48.7148 829.531 44.4848C839.564 42.9314 847.158 41.3314 852.311 39.6848C858.044 37.8514 863.771 35.9914 869.491 34.1048C878.418 31.1514 887.021 27.4481 895.301 22.9948Z" fill="#6B36BD"/>
<path d="M583.051 69.0348C583.078 69.8681 583.138 70.6914 583.231 71.5048C583.318 72.3181 583.534 72.7748 583.881 72.8748C584.388 73.0148 584.938 73.0014 585.531 72.8348C585.624 72.8082 585.722 72.8042 585.817 72.823C585.912 72.8419 586.002 72.8831 586.079 72.9434C586.156 73.0037 586.218 73.0813 586.26 73.1701C586.302 73.2589 586.323 73.3564 586.321 73.4548L586.171 79.0048C586.168 79.1542 586.115 79.2983 586.021 79.4143C585.927 79.5302 585.797 79.6114 585.651 79.6448C578.301 81.4848 571.961 80.1148 571.941 71.2548C571.921 65.3614 571.958 59.4448 572.051 53.5048L572.141 25.4848C572.141 25.4314 572.152 25.3786 572.172 25.3294C572.193 25.2802 572.223 25.2356 572.262 25.1983C572.3 25.1611 572.345 25.1318 572.395 25.1123C572.444 25.0928 572.498 25.0834 572.551 25.0848L582.411 25.3448C582.58 25.35 582.74 25.4207 582.858 25.5421C582.975 25.6634 583.041 25.8258 583.041 25.9948L583.051 69.0348Z" fill="white"/>
<path d="M206.628 25.7809L197.428 25.7487C196.914 25.747 196.497 26.1619 196.495 26.6755L196.467 34.6154C196.465 35.1291 196.88 35.5469 197.394 35.5487L206.594 35.5808C207.107 35.5826 207.525 35.1677 207.527 34.6541L207.555 26.7141C207.557 26.2005 207.142 25.7827 206.628 25.7809Z" fill="white"/>
<path d="M602.797 25.6493L593.437 25.6003C592.978 25.5979 592.605 25.9676 592.602 26.426L592.56 34.5659C592.557 35.0243 592.927 35.3978 593.385 35.4002L602.745 35.4492C603.204 35.4516 603.577 35.082 603.58 34.6236L603.622 26.4837C603.625 26.0253 603.255 25.6517 602.797 25.6493Z" fill="white"/>
<path d="M404.651 67.6248L406.901 75.4148C406.945 75.5699 406.944 75.7339 406.898 75.8867C406.852 76.0394 406.763 76.1743 406.641 76.2748C404.748 77.8148 402.581 78.8914 400.141 79.5048C385.771 83.0948 368.131 79.3048 363.791 62.9548C361.851 55.5948 362.371 46.7948 365.651 39.6548C374.051 24.8648 392.591 22.9048 406.221 31.1848C406.381 31.2815 406.497 31.4357 406.546 31.6149C406.594 31.794 406.571 31.9841 406.481 32.1448C405.154 34.4914 404.331 37.0914 404.011 39.9448C404.004 40.0074 403.98 40.067 403.943 40.1177C403.906 40.1684 403.856 40.2084 403.798 40.2337C403.74 40.259 403.677 40.2688 403.614 40.2619C403.552 40.2551 403.492 40.2319 403.441 40.1948C398.314 36.4414 392.304 35.3114 385.411 36.8048C372.091 39.6948 370.981 61.4048 380.951 68.6548C387.711 73.5648 397.831 71.9348 404.651 67.6248Z" fill="white"/>
<path d="M34.531 39.7948C29.3843 36.8081 23.5043 35.7048 16.891 36.4848C15.2043 36.6848 13.9143 37.4681 13.021 38.8348C9.81097 43.7548 13.901 46.5248 18.281 47.6848C24.541 49.3448 36.301 51.9348 37.971 59.5048C41.051 73.4048 32.621 80.3648 19.481 80.9248C12.6276 81.2181 6.20097 79.6381 0.200971 76.1848C0.126033 76.1418 0.0670261 76.0757 0.0327771 75.9964C-0.0014718 75.9171 -0.00912458 75.8288 0.0109685 75.7448L2.08097 67.5748C2.08594 67.5506 2.09645 67.5279 2.11166 67.5084C2.12687 67.489 2.14638 67.4733 2.16866 67.4627C2.19093 67.452 2.21537 67.4467 2.24006 67.447C2.26475 67.4474 2.28902 67.4535 2.31097 67.4648C8.39097 70.7948 18.031 73.5148 24.691 70.6648C26.0443 70.0848 26.9843 69.1081 27.511 67.7348C30.211 60.7248 20.361 58.9648 14.721 57.7548C9.98097 56.7414 6.14764 54.5814 3.22097 51.2748C2.90976 50.9239 2.65633 50.5184 2.47097 50.0748C-1.04903 41.6548 0.960968 32.8248 9.65097 28.7348C18.311 24.6548 28.561 26.6448 36.971 31.2148C37.0113 31.2379 37.0429 31.273 37.061 31.3146C37.0791 31.3562 37.0826 31.402 37.071 31.4448L35.011 39.5948C34.9997 39.6432 34.977 39.6881 34.9446 39.726C34.9123 39.7639 34.8712 39.7938 34.8246 39.8132C34.7781 39.8326 34.7273 39.841 34.6763 39.8378C34.6253 39.8346 34.5756 39.8199 34.531 39.7948Z" fill="white"/>
<path d="M908.911 28.2548C917.211 32.9814 922.568 35.9714 924.981 37.2248C934.781 42.3148 944.951 44.8148 955.691 48.5348C960.971 50.3681 966.761 51.6481 973.061 52.3748C974.851 52.5748 976.911 53.3248 978.751 53.8748C975.878 56.2548 973.964 57.9248 973.011 58.8848C962.138 69.8048 952.548 81.7581 944.241 94.7448C944.155 94.878 944.024 94.9763 943.872 95.0221C943.72 95.0679 943.557 95.0582 943.411 94.9948C943.058 94.8414 942.724 94.5348 942.411 94.0748C940.391 91.2548 937.894 89.8681 934.921 89.9148C931.521 89.9681 929.054 89.7914 927.521 89.3848C927.534 85.4781 927.531 81.6214 927.511 77.8148C927.478 72.7014 927.001 68.9014 926.081 66.4148C922.381 56.4248 911.621 50.3148 901.011 51.2948C901.398 51.0414 901.998 50.9414 902.811 50.9948C902.837 51.0012 902.866 50.9977 902.891 50.9848C903.111 50.9048 903.118 50.8748 902.911 50.8948C896.841 51.4748 890.531 52.1048 885.831 47.3648C884.198 45.7181 882.231 42.9414 879.931 39.0348C886.184 36.4614 891.854 33.7248 896.941 30.8248C900.874 28.5781 904.864 27.7214 908.911 28.2548Z" fill="#6332B3"/>
<path d="M212.031 50.5548L212.211 43.6448C212.215 43.4977 212.248 43.3527 212.308 43.2183C212.369 43.0839 212.455 42.9626 212.563 42.8614C212.671 42.7602 212.798 42.681 212.936 42.6284C213.075 42.5758 213.223 42.5507 213.371 42.5548L217.481 42.6648C217.608 42.6687 217.735 42.6473 217.854 42.6017C217.974 42.5561 218.083 42.4872 218.176 42.399C218.269 42.3108 218.343 42.2049 218.396 42.0875C218.448 41.9701 218.477 41.8435 218.481 41.7148L218.671 34.6148C218.673 34.5337 218.692 34.454 218.726 34.3806C218.761 34.3072 218.809 34.2417 218.869 34.1882C218.929 34.1347 218.999 34.0944 219.075 34.0697C219.151 34.045 219.232 34.0365 219.311 34.0448C222.311 34.3514 225.154 33.9381 227.841 32.8048C227.911 32.7769 227.987 32.7667 228.062 32.775C228.136 32.7833 228.208 32.8098 228.27 32.8523C228.332 32.8947 228.383 32.9518 228.418 33.0185C228.453 33.0852 228.471 33.1595 228.471 33.2348V41.8248C228.471 41.9972 228.539 42.1625 228.661 42.2844C228.783 42.4063 228.949 42.4748 229.121 42.4748H238.301C238.346 42.4748 238.392 42.4839 238.433 42.5016C238.475 42.5193 238.513 42.5452 238.545 42.5779C238.577 42.6105 238.602 42.6492 238.618 42.6916C238.635 42.734 238.642 42.7793 238.641 42.8248L238.431 50.6848C238.428 50.8157 238.373 50.9403 238.278 51.0319C238.183 51.1236 238.055 51.1749 237.921 51.1748H229.131C229.048 51.1747 228.966 51.1914 228.889 51.2238C228.812 51.2562 228.743 51.3037 228.685 51.3634C228.628 51.4231 228.582 51.4938 228.552 51.5714C228.522 51.6489 228.508 51.7317 228.511 51.8148C228.598 57.3014 228.641 62.8548 228.641 68.4748C228.631 73.5048 234.671 72.7748 238.061 71.6048C238.09 71.5953 238.12 71.5927 238.15 71.5972C238.179 71.6018 238.208 71.6133 238.232 71.6309C238.256 71.6484 238.276 71.6715 238.29 71.6983C238.304 71.7251 238.311 71.7547 238.311 71.7848V79.0648C238.312 79.1432 238.288 79.22 238.243 79.2844C238.198 79.3489 238.135 79.3979 238.061 79.4248C229.701 82.4648 218.171 80.8948 218.221 69.5748C218.234 66.0014 218.221 60.0581 218.181 51.7448C218.181 51.644 218.141 51.5473 218.07 51.4761C217.998 51.4048 217.902 51.3648 217.801 51.3648H212.821C212.716 51.3648 212.611 51.3437 212.514 51.3028C212.417 51.2618 212.329 51.2019 212.255 51.1264C212.182 51.0509 212.124 50.9614 212.085 50.8632C212.047 50.7651 212.028 50.6602 212.031 50.5548Z" fill="white"/>
<path d="M327.061 66.0048C327.794 64.1714 328.201 62.1581 328.281 59.9648C328.289 59.7985 328.361 59.6419 328.482 59.528C328.604 59.4141 328.765 59.352 328.931 59.3548L336.271 59.5548C336.343 59.5574 336.414 59.5775 336.477 59.6133C336.54 59.6492 336.593 59.6996 336.633 59.7605C336.672 59.8214 336.696 59.8908 336.703 59.9629C336.709 60.0351 336.698 60.1077 336.671 60.1748C335.371 63.2881 334.201 65.8681 333.161 67.9148C332.601 69.0048 331.891 69.3548 331.411 70.0548C331.319 70.1914 331.27 70.3514 331.268 70.5149C331.266 70.6785 331.312 70.8384 331.401 70.9748C333.774 74.5814 336.111 77.3048 338.411 79.1448C338.482 79.1979 338.533 79.2725 338.557 79.3574C338.581 79.4422 338.576 79.5329 338.544 79.616C338.511 79.699 338.452 79.77 338.376 79.8184C338.3 79.8669 338.211 79.8901 338.121 79.8848C334.648 79.6648 332.314 79.5748 331.121 79.6148C329.161 79.6748 328.071 78.4748 327.341 77.0248C327.306 76.9597 327.259 76.9023 327.201 76.8564C327.144 76.8105 327.078 76.7771 327.007 76.7583C326.936 76.7395 326.863 76.7357 326.791 76.7471C326.72 76.7586 326.651 76.785 326.591 76.8248C321.838 79.9714 316.608 81.1414 310.901 80.3348C308.894 80.0548 306.824 79.0114 304.691 77.2048C301.644 74.6248 300.448 71.1948 301.101 66.9148C301.681 63.1681 303.764 60.4281 307.351 58.6948C307.449 58.6479 307.535 58.5795 307.602 58.4947C307.67 58.4099 307.718 58.3109 307.742 58.2052C307.766 58.0994 307.766 57.9896 307.741 57.8839C307.717 57.7782 307.669 57.6793 307.601 57.5948C305.521 54.9948 303.561 50.9848 304.371 47.6048C306.201 39.9848 313.921 37.3948 320.701 39.2748C331.131 42.1448 330.091 55.4248 320.461 58.5248C320.3 58.5777 320.156 58.6709 320.042 58.7953C319.928 58.9198 319.847 59.0715 319.808 59.2359C319.769 59.4003 319.773 59.572 319.819 59.7345C319.865 59.8971 319.952 60.0452 320.071 60.1648L326.101 66.2048C326.17 66.2726 326.255 66.3224 326.348 66.3497C326.441 66.3769 326.539 66.3809 326.634 66.3611C326.729 66.3413 326.818 66.2985 326.892 66.2363C326.967 66.1742 327.025 66.0946 327.061 66.0048ZM320.801 51.2348C321.571 49.7548 321.011 46.9348 319.711 45.7548C318.378 44.5481 316.641 44.3314 314.501 45.1048C314.179 45.2167 313.887 45.4016 313.651 45.6448C310.801 48.4948 312.561 51.4548 314.681 53.9848C314.966 54.3233 315.356 54.5559 315.788 54.6449C316.22 54.7338 316.669 54.6739 317.061 54.4748C318.908 53.5481 320.154 52.4681 320.801 51.2348ZM320.981 71.3448L312.081 62.6048C312.006 62.5315 311.906 62.4904 311.801 62.4904C311.696 62.4904 311.596 62.5315 311.521 62.6048L310.811 63.3248C310.228 63.9178 309.765 64.618 309.449 65.3854C309.133 66.1528 308.971 66.9723 308.971 67.797C308.971 68.6218 309.133 69.4356 309.449 70.1919C309.765 70.9482 310.228 71.6322 310.811 72.2048L311.411 72.7848C312.587 73.9408 314.182 74.5743 315.845 74.5462C317.508 74.5181 319.104 73.8305 320.281 72.6348L320.991 71.9148C321.028 71.8769 321.057 71.832 321.077 71.7827C321.097 71.7334 321.106 71.6807 321.105 71.6277C321.104 71.5746 321.093 71.5223 321.072 71.4737C321.05 71.4252 321.019 71.3813 320.981 71.3448Z" fill="white"/>
<path d="M726.791 69.5648C726.836 69.5316 726.889 69.5111 726.944 69.5054C726.999 69.4996 727.056 69.5088 727.107 69.5321C727.159 69.5553 727.204 69.5917 727.238 69.6378C727.272 69.6839 727.293 69.738 727.301 69.7948C727.674 73.6014 728.081 75.6414 728.521 75.9148C728.613 75.9681 728.691 76.0429 728.748 76.1328C728.805 76.2228 728.839 76.3252 728.848 76.4313C728.857 76.5374 728.84 76.644 728.799 76.7421C728.757 76.8403 728.693 76.9269 728.611 76.9948C726.298 78.9614 722.604 80.1581 717.531 80.5848C707.771 81.4048 698.691 76.7348 696.771 66.7748C694.931 57.2748 697.031 46.6648 706.791 42.8248C714.051 39.9581 721.324 40.5148 728.611 44.4948C728.667 44.5223 728.712 44.5692 728.737 44.6276C728.763 44.686 728.768 44.7521 728.751 44.8148L726.651 52.9648C726.64 53.0063 726.619 53.0444 726.59 53.0758C726.561 53.1072 726.524 53.1309 726.484 53.1448C726.443 53.1586 726.399 53.1622 726.357 53.1552C726.315 53.1483 726.275 53.1309 726.241 53.1048C722.834 50.4648 718.914 49.5714 714.481 50.4248C707.671 51.7248 707.001 58.2848 707.721 63.9348C709.021 73.9848 720.531 73.8748 726.791 69.5648Z" fill="white"/>
<path d="M79.531 63.0548C79.5351 63.1535 79.5189 63.2521 79.4833 63.3443C79.4477 63.4365 79.3936 63.5204 79.3241 63.5908C79.2547 63.6611 79.1715 63.7164 79.0798 63.7533C78.9881 63.7901 78.8898 63.8076 78.791 63.8048L56.411 63.2048C55.9706 63.1929 55.5357 63.3029 55.1539 63.5227C54.7722 63.7424 54.4583 64.0635 54.2466 64.4507C54.0349 64.838 53.9336 65.2764 53.9538 65.7181C53.9739 66.1597 54.1148 66.5876 54.361 66.9548L55.631 68.8148C56.3626 69.8967 57.3255 70.8038 58.4509 71.4711C59.5763 72.1384 60.8364 72.5494 62.141 72.6748C67.3276 73.1681 72.2343 72.0981 76.861 69.4648C76.923 69.4276 76.9942 69.4094 77.0663 69.4122C77.1384 69.415 77.2084 69.4388 77.2681 69.4807C77.3279 69.5226 77.3749 69.581 77.4038 69.649C77.4326 69.717 77.442 69.7918 77.431 69.8648C77.031 72.1381 77.2576 74.2381 78.111 76.1648C78.184 76.3373 78.1907 76.5308 78.1297 76.7079C78.0688 76.8851 77.9446 77.0336 77.781 77.1248C71.201 80.8048 64.171 81.7648 56.691 80.0048C51.721 78.8348 46.631 74.3148 44.881 69.2548C41.511 59.5848 44.041 48.4248 53.711 43.3148C65.381 37.1448 80.831 45.3148 79.641 59.2348C79.5276 60.5814 79.491 61.8548 79.531 63.0548ZM54.831 57.5948L69.591 57.4948C69.6776 57.4935 69.7632 57.4751 69.8428 57.4407C69.9224 57.4063 69.9944 57.3566 70.0548 57.2944C70.1151 57.2322 70.1626 57.1587 70.1946 57.0781C70.2265 56.9975 70.2423 56.9114 70.241 56.8248V56.7248C70.2344 55.7766 70.0409 54.839 69.6716 53.9656C69.3022 53.0921 68.7641 52.2998 68.0881 51.634C67.4121 50.9682 66.6113 50.4419 65.7316 50.0852C64.8519 49.7284 63.9104 49.5482 62.961 49.5548L61.341 49.5748C60.3915 49.5813 59.4526 49.7746 58.578 50.1435C57.7033 50.5124 56.9099 51.0497 56.2432 51.7248C55.5765 52.3999 55.0494 53.1995 54.6922 54.078C54.3349 54.9565 54.1544 55.8966 54.161 56.8448V56.9448C54.1623 57.0315 54.1806 57.117 54.215 57.1966C54.2494 57.2762 54.2991 57.3482 54.3613 57.4086C54.4235 57.4689 54.497 57.5164 54.5776 57.5484C54.6582 57.5803 54.7443 57.5961 54.831 57.5948Z" fill="white"/>
<path d="M114.411 69.7748C114.457 69.7407 114.511 69.7195 114.568 69.7133C114.624 69.7071 114.682 69.7163 114.734 69.7397C114.786 69.7632 114.83 69.8001 114.863 69.8467C114.896 69.8933 114.916 69.9479 114.921 70.0048C115.314 73.7981 115.731 75.8314 116.171 76.1048C116.261 76.1585 116.337 76.2329 116.393 76.3219C116.449 76.411 116.482 76.512 116.491 76.6166C116.5 76.7213 116.484 76.8265 116.444 76.9236C116.404 77.0206 116.341 77.1068 116.261 77.1748C113.968 79.1481 110.291 80.3581 105.231 80.8048C95.501 81.6748 86.421 77.0548 84.461 67.1348C82.581 57.6648 84.621 47.0748 94.341 43.1948C101.568 40.3014 108.824 40.8214 116.111 44.7548C116.167 44.7823 116.212 44.8292 116.237 44.8876C116.263 44.946 116.268 45.0121 116.251 45.0748L114.201 53.2148C114.19 53.2563 114.169 53.2944 114.14 53.3258C114.111 53.3572 114.074 53.3809 114.034 53.3948C113.993 53.4086 113.95 53.4122 113.907 53.4052C113.865 53.3983 113.825 53.3809 113.791 53.3548C110.378 50.7414 106.461 49.8681 102.041 50.7348C95.261 52.0648 94.621 58.6148 95.371 64.2448C96.711 74.2648 108.191 74.1048 114.411 69.7748Z" fill="white"/>
<path d="M451.031 63.9848C450.144 71.8114 445.914 77.0181 438.341 79.6048C421.371 85.4148 408.271 72.9348 411.481 55.7648C414.351 43.3848 428.021 38.7848 439.121 42.5648C448.011 45.5848 451.761 54.8948 451.031 63.9848ZM439.856 58.3111C439.865 57.2553 439.666 56.208 439.271 55.2291C438.875 54.2501 438.291 53.3587 437.551 52.6056C436.811 51.8525 435.93 51.2526 434.958 50.84C433.986 50.4275 432.942 50.2104 431.887 50.2012L430.507 50.1892C429.451 50.18 428.404 50.3788 427.425 50.7743C426.446 51.1698 425.554 51.7543 424.801 52.4943C424.048 53.2343 423.448 54.1155 423.036 55.0874C422.623 56.0593 422.406 57.1029 422.397 58.1587L422.346 63.9985C422.337 65.0543 422.535 66.1015 422.931 67.0805C423.327 68.0594 423.911 68.9509 424.651 69.704C425.391 70.457 426.272 71.057 427.244 71.4695C428.216 71.8821 429.26 72.0992 430.315 72.1084L431.695 72.1204C432.751 72.1296 433.798 71.9308 434.777 71.5353C435.756 71.1397 436.648 70.5553 437.401 69.8152C438.154 69.0752 438.754 68.1941 439.166 67.2222C439.579 66.2503 439.796 65.2067 439.805 64.1509L439.856 58.3111Z" fill="white"/>
<path d="M518.311 52.5748L518.521 79.5248C518.521 79.6335 518.479 79.7378 518.404 79.8147C518.329 79.8916 518.227 79.9348 518.121 79.9348H508.251C508.158 79.9349 508.066 79.9161 507.981 79.8795C507.896 79.8428 507.819 79.7891 507.755 79.7217C507.692 79.6542 507.643 79.5745 507.611 79.4873C507.579 79.4001 507.565 79.3074 507.571 79.2148C507.618 78.3148 507.704 71.6281 507.831 59.1548C507.881 53.7048 507.371 49.8948 501.161 50.3448C497.814 50.5914 495.278 52.0848 493.551 54.8248C493.472 54.956 493.431 55.1046 493.431 55.2548V79.2448C493.431 79.4066 493.367 79.5617 493.252 79.6761C493.138 79.7905 492.983 79.8548 492.821 79.8548H483.601C483.498 79.8548 483.395 79.8343 483.3 79.7945C483.205 79.7546 483.118 79.6963 483.046 79.6228C482.973 79.5493 482.916 79.4621 482.877 79.3663C482.839 79.2706 482.82 79.168 482.821 79.0648C482.854 75.8381 482.928 68.6848 483.041 57.6048C483.121 49.9148 475.571 48.2748 470.391 52.2948C469.855 52.7119 469.422 53.2458 469.124 53.8558C468.826 54.4658 468.671 55.1358 468.671 55.8148V79.1948C468.671 79.3884 468.594 79.5741 468.457 79.711C468.32 79.8479 468.135 79.9248 467.941 79.9248H457.961C457.839 79.9248 457.722 79.8763 457.636 79.7901C457.549 79.7038 457.501 79.5868 457.501 79.4648L457.621 42.5548L466.951 42.3548C467.145 42.3492 467.334 42.419 467.477 42.5495C467.621 42.68 467.708 42.8611 467.721 43.0548L467.971 46.2348C467.979 46.3205 468.011 46.4026 468.063 46.4711C468.116 46.5397 468.186 46.5918 468.266 46.6213C468.347 46.6508 468.433 46.6565 468.515 46.6376C468.598 46.6187 468.673 46.5761 468.731 46.5148C473.751 41.3748 479.671 40.0448 486.491 42.5248C488.721 43.3448 490.841 45.2148 491.511 47.5948C491.528 47.6558 491.562 47.7109 491.609 47.7536C491.656 47.7963 491.714 47.825 491.777 47.8364C491.839 47.8479 491.904 47.8416 491.963 47.8183C492.022 47.7951 492.073 47.7557 492.111 47.7048C494.958 44.0381 498.664 41.9481 503.231 41.4348C511.221 40.5348 518.111 43.8548 518.311 52.5748Z" fill="white"/>
<path d="M564.771 54.0748C566.044 59.9014 565.768 65.2314 563.941 70.0648C561.041 77.7548 553.561 82.0448 545.451 80.6048C542.631 80.1048 540.221 79.0548 538.221 77.4548C538.174 77.4171 538.117 77.3935 538.057 77.3866C537.997 77.3798 537.937 77.39 537.882 77.4162C537.828 77.4423 537.782 77.4833 537.75 77.5343C537.718 77.5854 537.701 77.6445 537.701 77.7048V94.7948C537.701 94.9353 537.646 95.0701 537.549 95.1695C537.451 95.2689 537.319 95.3248 537.181 95.3248H527.291C527.174 95.3248 527.062 95.2774 526.98 95.193C526.897 95.1086 526.851 94.9941 526.851 94.8748L526.831 69.4848L526.751 43.2848C526.751 43.1583 526.776 43.0331 526.825 42.9165C526.874 42.8 526.946 42.6943 527.036 42.6058C527.127 42.5174 527.234 42.4478 527.351 42.4013C527.469 42.3547 527.595 42.3321 527.721 42.3348L536.021 42.5648C536.129 42.5674 536.235 42.5912 536.333 42.6348C536.432 42.6784 536.521 42.741 536.595 42.819C536.669 42.897 536.727 42.9889 536.766 43.0894C536.805 43.1899 536.824 43.2971 536.821 43.4048L536.731 46.5148C536.727 46.6058 536.751 46.6958 536.801 46.7724C536.85 46.849 536.922 46.9084 537.006 46.9424C537.091 46.9764 537.184 46.9834 537.272 46.9623C537.361 46.9412 537.441 46.8932 537.501 46.8248C541.681 42.2381 546.668 40.5214 552.461 41.6748C555.501 42.2748 558.134 43.7348 560.361 46.0548C562.488 48.2681 563.958 50.9414 564.771 54.0748ZM537.611 54.2548L537.761 66.1648C537.768 66.2976 537.791 66.4319 537.831 66.5648C538.751 69.2248 540.568 70.9948 543.281 71.8748C553.571 75.2348 555.301 63.2448 553.851 56.5148C552.151 48.5948 542.121 48.3048 537.791 53.7348C537.669 53.8827 537.605 54.0677 537.611 54.2548Z" fill="white"/>
<path d="M643.891 79.9048L635.501 79.8448C635.335 79.8428 635.175 79.7782 635.053 79.6637C634.931 79.5491 634.856 79.3927 634.841 79.2248L634.561 75.6948C634.551 75.5868 634.509 75.4844 634.439 75.4013C634.37 75.3182 634.276 75.2585 634.172 75.2301C634.067 75.2018 633.956 75.2062 633.854 75.2428C633.752 75.2794 633.664 75.3464 633.601 75.4348C625.821 86.7648 604.791 79.3448 611.451 64.3048C612.884 61.0714 615.454 59.0614 619.161 58.2748C622.741 57.5148 626.554 57.2081 630.601 57.3548C631.481 57.7814 632.538 57.8948 633.771 57.6948C634.01 57.6564 634.228 57.5333 634.384 57.3479C634.54 57.1624 634.624 56.9271 634.621 56.6848C634.548 52.4848 632.211 50.4048 627.611 50.4448C622.958 50.4914 618.774 51.2381 615.061 52.6848C614.997 52.7077 614.927 52.7048 614.865 52.6768C614.804 52.6488 614.756 52.5978 614.731 52.5348L612.211 45.5448C612.172 45.4354 612.176 45.316 612.22 45.2103C612.265 45.1046 612.347 45.0205 612.451 44.9748C619.464 41.7148 626.518 40.6648 633.611 41.8248C637.958 42.5314 641.178 44.8181 643.271 48.6848C644.411 50.7914 644.908 54.7981 644.761 60.7048C644.661 64.8581 644.658 71.0381 644.751 79.2448C644.755 79.3885 644.705 79.5288 644.611 79.6393C644.517 79.7498 644.386 79.8228 644.241 79.8448L643.891 79.9048ZM633.351 63.1848L625.001 63.8348C624.447 63.8777 623.906 64.0296 623.411 64.2816C622.915 64.5335 622.474 64.8808 622.113 65.3034C621.751 65.7259 621.477 66.2156 621.305 66.7443C621.133 67.2731 621.067 67.8305 621.111 68.3848L621.151 68.8348C621.248 70.0751 621.816 71.2314 622.738 72.0663C623.66 72.9013 624.867 73.3515 626.111 73.3248C629.571 73.2514 632.168 71.9414 633.901 69.3948C633.999 69.2443 634.054 69.0715 634.061 68.8948L634.191 63.9748C634.194 63.8668 634.174 63.7593 634.133 63.6593C634.091 63.5594 634.029 63.4692 633.95 63.3947C633.87 63.3202 633.776 63.263 633.673 63.2268C633.57 63.1907 633.46 63.1763 633.351 63.1848Z" fill="white"/>
<path d="M679.061 79.7548C679.002 79.7548 678.944 79.7431 678.89 79.7203C678.836 79.6976 678.787 79.6643 678.746 79.6224C678.705 79.5805 678.673 79.5308 678.652 79.4762C678.63 79.4217 678.62 79.3634 678.621 79.3048C678.634 75.5048 678.651 67.8348 678.671 56.2948C678.691 47.8748 665.331 49.1548 663.581 54.9948C663.561 55.0677 663.551 55.1417 663.551 55.2148L663.351 79.2448C663.348 79.3942 663.287 79.5366 663.181 79.6414C663.074 79.7461 662.93 79.8048 662.781 79.8048H653.291C653.156 79.8048 653.026 79.751 652.93 79.6554C652.835 79.5597 652.781 79.43 652.781 79.2948V43.2748C652.781 43.0414 652.873 42.8175 653.036 42.6525C653.199 42.4875 653.42 42.3948 653.651 42.3948H661.671C661.937 42.3942 662.194 42.4957 662.39 42.6792C662.587 42.8626 662.708 43.1145 662.731 43.3848L662.981 46.5648C662.988 46.664 663.024 46.759 663.085 46.8377C663.146 46.9163 663.229 46.9749 663.323 47.006C663.418 47.0372 663.519 47.0394 663.615 47.0125C663.711 46.9855 663.797 46.9306 663.861 46.8548C668.008 42.0548 673.588 40.3481 680.601 41.7348C686.741 42.9548 689.681 50.0848 689.761 55.8048C689.841 62.4314 689.811 70.2314 689.671 79.2048C689.668 79.3515 689.609 79.4914 689.506 79.5942C689.404 79.6971 689.265 79.7548 689.121 79.7548H679.061Z" fill="white"/>
<path d="M766.581 68.9248C766.632 68.8892 766.693 68.8699 766.755 68.8693C766.817 68.8687 766.878 68.8868 766.93 68.9213C766.982 68.9559 767.022 69.0052 767.045 69.0629C767.069 69.1205 767.074 69.1839 767.061 69.2448C766.561 71.7714 766.688 74.0648 767.441 76.1248C767.525 76.3538 767.524 76.6048 767.44 76.8322C767.355 77.0597 767.193 77.2486 766.981 77.3648C755.861 83.4148 736.341 82.7948 733.091 67.1148C729.851 51.5248 738.941 39.1348 755.531 41.6448C762.541 42.6948 766.961 47.5848 768.671 54.3048C769.311 56.8114 769.431 59.9681 769.031 63.7748C769.024 63.8482 769.002 63.9194 768.966 63.9842C768.93 64.0489 768.881 64.1058 768.822 64.1516C768.764 64.1973 768.696 64.2309 768.624 64.2503C768.551 64.2698 768.475 64.2747 768.401 64.2648C760.651 63.2148 752.341 63.7648 743.601 63.6648C743.517 63.6635 743.434 63.6808 743.357 63.7155C743.28 63.7501 743.212 63.8013 743.158 63.8654C743.103 63.9294 743.064 64.0047 743.042 64.0858C743.02 64.167 743.016 64.252 743.031 64.3348C745.111 75.8248 759.741 73.4448 766.581 68.9248ZM743.401 57.3548H759.081C759.118 57.3548 759.154 57.3475 759.188 57.3335C759.222 57.3194 759.253 57.2988 759.279 57.2728C759.305 57.2468 759.326 57.2159 759.34 57.1819C759.354 57.1479 759.361 57.1115 759.361 57.0748V56.8848C759.361 55.9353 759.174 54.9952 758.811 54.118C758.448 53.2408 757.917 52.4438 757.246 51.7724C756.576 51.101 755.78 50.5685 754.904 50.2051C754.028 49.8418 753.089 49.6548 752.141 49.6548H750.341C748.426 49.6548 746.59 50.4165 745.236 51.7724C743.882 53.1283 743.121 54.9673 743.121 56.8848V57.0748C743.121 57.149 743.15 57.2203 743.203 57.2728C743.255 57.3253 743.327 57.3548 743.401 57.3548Z" fill="white"/>
<path d="M177.091 47.9448C180.021 43.5948 184.561 40.9348 189.991 42.1048C190.15 42.1415 190.292 42.2312 190.392 42.3587C190.492 42.4863 190.545 42.6438 190.541 42.8048L190.301 51.8748C190.298 51.9657 190.275 52.0547 190.233 52.1353C190.19 52.2158 190.13 52.2857 190.057 52.3396C189.984 52.3936 189.899 52.4301 189.81 52.4466C189.721 52.4631 189.629 52.4591 189.541 52.4348C185.108 51.2014 181.254 51.8948 177.981 54.5148C177.557 54.8546 177.214 55.2845 176.979 55.7726C176.743 56.2607 176.621 56.7946 176.621 57.3348V79.2048C176.621 79.3745 176.555 79.5373 176.436 79.6573C176.318 79.7773 176.158 79.8448 175.991 79.8448H166.471C166.328 79.8448 166.19 79.7868 166.089 79.6837C165.988 79.5805 165.931 79.4406 165.931 79.2948V43.1448C165.931 43.0485 165.95 42.9532 165.988 42.8645C166.025 42.7759 166.08 42.6956 166.149 42.6285C166.218 42.5613 166.3 42.5087 166.389 42.4737C166.479 42.4387 166.575 42.4221 166.671 42.4248L175.391 42.6548C175.592 42.66 175.782 42.7434 175.923 42.8873C176.063 43.0311 176.141 43.224 176.141 43.4248V47.6548C176.141 47.7658 176.177 47.8737 176.244 47.9627C176.31 48.0518 176.403 48.1173 176.509 48.1497C176.615 48.1821 176.729 48.1797 176.834 48.1428C176.938 48.106 177.029 48.0366 177.091 47.9448Z" fill="white"/>
<path d="M156.611 42.3648C156.711 42.3648 156.81 42.3844 156.902 42.4226C156.994 42.4608 157.078 42.5168 157.148 42.5874C157.219 42.6579 157.275 42.7417 157.313 42.8339C157.351 42.9261 157.371 43.025 157.371 43.1248V79.0348C157.371 79.2682 157.278 79.492 157.113 79.657C156.948 79.8221 156.724 79.9148 156.491 79.9148H148.571C148.322 79.9148 148.083 79.8157 147.906 79.6395C147.73 79.4632 147.631 79.2241 147.631 78.9748V76.2648C147.633 76.0943 147.581 75.9275 147.483 75.7878C147.386 75.648 147.247 75.5421 147.086 75.4849C146.925 75.4277 146.751 75.422 146.587 75.4686C146.423 75.5151 146.278 75.6117 146.171 75.7448C139.211 84.2148 122.691 82.3848 122.301 69.7348C122.028 61.0814 121.951 52.1548 122.071 42.9548C122.074 42.7894 122.141 42.6317 122.259 42.5157C122.377 42.3998 122.536 42.3348 122.701 42.3348H132.261C132.34 42.3348 132.419 42.3504 132.491 42.3809C132.564 42.4113 132.63 42.4558 132.685 42.5118C132.74 42.5678 132.783 42.6341 132.812 42.7067C132.84 42.7794 132.854 42.857 132.851 42.9348C132.651 50.7881 132.678 58.5614 132.931 66.2548C133.091 71.2281 135.638 73.2781 140.571 72.4048C143.871 71.8248 145.971 69.7481 146.871 66.1748C146.884 66.1083 146.891 66.0413 146.891 65.9748L146.841 42.7748C146.841 42.666 146.884 42.5618 146.961 42.4849C147.038 42.408 147.142 42.3648 147.251 42.3648H156.611Z" fill="white"/>
<path d="M206.321 42.3948H197.541C196.989 42.3948 196.541 42.8425 196.541 43.3948V78.8548C196.541 79.4071 196.989 79.8548 197.541 79.8548H206.321C206.873 79.8548 207.321 79.4071 207.321 78.8548V43.3948C207.321 42.8425 206.873 42.3948 206.321 42.3948Z" fill="white"/>
<path d="M248.621 94.9148C248.601 94.9136 248.582 94.9076 248.566 94.8974C248.549 94.8872 248.535 94.8732 248.526 94.8569C248.517 94.8405 248.513 94.8224 248.513 94.8045C248.514 94.7865 248.52 94.7694 248.531 94.7548C251.311 90.3548 253.691 85.3314 255.671 79.6848C255.754 79.4603 255.747 79.2098 255.651 78.9848L240.931 43.2748C240.893 43.1818 240.879 43.0808 240.889 42.981C240.9 42.8811 240.935 42.7853 240.991 42.7022C241.048 42.6191 241.124 42.5512 241.213 42.5046C241.301 42.4579 241.401 42.4339 241.501 42.4348H251.441C251.556 42.4342 251.668 42.4693 251.763 42.5355C251.857 42.6016 251.93 42.6956 251.971 42.8048L260.701 67.0148C260.734 67.1047 260.795 67.182 260.874 67.2359C260.953 67.2899 261.047 67.3176 261.143 67.3154C261.239 67.3132 261.332 67.2811 261.408 67.2237C261.485 67.1662 261.542 67.0861 261.571 66.9948L269.381 43.0048C269.427 42.862 269.517 42.7376 269.638 42.6496C269.758 42.5615 269.903 42.5143 270.051 42.5148H279.921C279.99 42.5151 280.058 42.532 280.119 42.5642C280.18 42.5963 280.232 42.6427 280.271 42.699C280.31 42.7554 280.333 42.8202 280.34 42.8874C280.347 42.9547 280.337 43.0225 280.311 43.0848L259.811 94.4848C259.761 94.6112 259.674 94.7198 259.562 94.7964C259.45 94.8731 259.317 94.9143 259.181 94.9148H248.621Z" fill="white"/>
<path d="M603.691 42.6548L603.631 79.1648C603.631 79.2528 603.614 79.3399 603.581 79.4212C603.548 79.5025 603.499 79.5763 603.438 79.6385C603.376 79.7007 603.304 79.7501 603.224 79.7838C603.143 79.8174 603.058 79.8348 602.971 79.8348H593.541C593.366 79.8348 593.198 79.7652 593.074 79.6415C592.951 79.5177 592.881 79.3498 592.881 79.1748L592.961 49.8548L592.911 43.0448C592.911 42.9778 592.924 42.9115 592.95 42.8496C592.975 42.7877 593.013 42.7315 593.06 42.6842C593.108 42.6368 593.164 42.5992 593.226 42.5736C593.288 42.548 593.354 42.5348 593.421 42.5348L603.691 42.6548Z" fill="white"/>
<path d="M829.531 44.4848C830.861 48.7148 829.721 51.5648 830.031 55.5748C829.991 67.2281 830.011 78.8814 830.091 90.5348C830.124 95.3748 830.868 101.881 832.321 110.055C831.908 112.455 830.984 113.298 829.551 112.585C827.618 111.618 825.518 109.971 823.251 107.645C822.271 97.6714 821.961 88.3014 822.321 79.5348C822.474 75.8348 822.511 73.0014 822.431 71.0348C822.101 62.5948 822.201 55.6248 821.861 46.5548C821.851 46.2583 821.951 45.9689 822.141 45.7433C822.332 45.5176 822.599 45.3719 822.891 45.3348L829.531 44.4848Z" fill="#773FCB"/>
<path d="M1026.52 51.9048C1026.68 54.5714 1025.74 57.0381 1023.69 59.3048C1021.9 61.2914 1020.34 62.8248 1019.02 63.9048L1005.93 80.3648C1004.34 85.4248 1003.25 90.8614 1002.64 96.6748C1001.95 103.255 1001.42 107.468 1001.04 109.315C999.901 114.855 998.478 120.981 996.771 127.695C991.481 148.485 980.941 169.425 966.801 185.915C962.168 191.321 956.518 196.738 949.851 202.165L938.171 210.565C927.891 217.351 916.878 222.928 905.131 227.295C904.982 227.352 904.823 227.378 904.664 227.373C904.504 227.368 904.347 227.331 904.201 227.265L892.371 222.075C883.904 215.668 875.418 209.325 866.911 203.045C856.444 195.311 847.384 185.361 839.731 173.195C833.011 162.508 827.564 151.208 823.391 139.295C819.418 127.948 818.748 116.445 821.381 104.785C822.041 110.605 822.608 114.541 823.081 116.595C826.481 131.201 831.554 144.358 838.301 156.065C846.288 169.938 856.481 181.705 868.881 191.365C876.134 197.011 881.521 200.788 885.041 202.695C891.441 206.155 896.931 209.455 904.641 212.935C904.799 213.003 904.97 213.034 905.14 213.025C905.31 213.017 905.475 212.969 905.621 212.885C906.754 212.231 907.591 211.775 908.131 211.515C917.681 206.955 927.421 202.175 935.241 196.315C959.021 178.495 975.294 155.281 984.061 126.675C985.611 121.605 986.701 115.665 987.951 110.145C988.691 104.358 988.914 98.5314 988.621 92.6648C993.394 84.2048 997.354 78.0281 1000.5 74.1348C1005.78 67.5948 1011.45 60.5048 1017.51 52.8648C1018.16 52.0448 1018.8 51.3481 1019.41 50.7748C1019.47 50.7158 1019.52 50.6418 1019.55 50.5596C1019.58 50.4773 1019.58 50.3895 1019.57 50.304C1019.55 50.2185 1019.52 50.1381 1019.46 50.0701C1019.41 50.0021 1019.34 49.9487 1019.26 49.9148C1016.95 48.9414 1015.07 48.8748 1013.64 49.7148C1012.43 49.0348 1010.93 48.7814 1009.13 48.9548C1015.72 47.8348 1020.2 49.3448 1026.52 51.9048Z" fill="#EEECF9"/>
<path d="M1009.13 48.9548C1010.93 48.7814 1012.43 49.0348 1013.64 49.7148C1012.17 50.9214 1010.76 52.1348 1009.41 53.3548C1007.8 54.8081 1006.53 56.1548 1005.6 57.3948C1001.36 63.0448 996.001 68.1748 991.231 74.4148C981.971 86.5214 973.244 99.2714 965.051 112.665C957.111 125.645 950.314 137.115 944.661 147.075C938.721 157.528 933.701 166.071 929.601 172.705C926.111 178.355 922.211 183.745 916.671 187.775C914.711 189.208 912.508 189.875 910.061 189.775C906.121 187.915 902.611 185.298 899.531 181.925C897.784 180.011 896.038 178.055 894.291 176.055C894.411 175.941 894.471 175.831 894.471 175.725C894.47 175.659 894.489 175.595 894.525 175.541C894.561 175.487 894.613 175.443 894.676 175.416C894.738 175.389 894.808 175.38 894.878 175.388C894.948 175.397 895.014 175.423 895.071 175.465L901.711 180.405L910.931 183.275C911.208 183.361 911.501 183.388 911.791 183.355C916.331 182.805 920.811 179.295 923.501 175.985C924.354 174.931 925.704 173.365 927.551 171.285C929.311 169.291 930.864 167.155 932.211 164.875C937.411 157.188 942.251 149.321 946.731 141.275C950.531 134.445 954.091 128.735 957.921 122.535C962.374 115.041 966.938 107.615 971.611 100.255C973.784 96.8214 975.341 93.6748 976.281 90.8148C979.248 81.8348 980.504 72.5448 980.051 62.9448C983.611 59.7581 986.354 57.4948 988.281 56.1548C994.648 51.7481 1001.6 49.3481 1009.13 48.9548Z" fill="#75B442"/>
<path d="M988.621 92.6648C987.608 93.8381 986.048 96.1381 983.941 99.5648C974.228 115.358 967.091 127.488 962.531 135.955L956.131 147.395C950.271 156.588 944.888 166.088 939.981 175.895C937.011 181.835 933.641 188.675 928.171 191.745C923.291 194.485 915.011 192.255 910.061 189.775C912.508 189.875 914.711 189.208 916.671 187.775C922.211 183.745 926.111 178.355 929.601 172.705C933.701 166.071 938.721 157.528 944.661 147.075C950.314 137.115 957.111 125.645 965.051 112.665C973.244 99.2714 981.971 86.5214 991.231 74.4148C996.001 68.1748 1001.36 63.0448 1005.6 57.3948C1006.53 56.1548 1007.8 54.8081 1009.41 53.3548C1010.76 52.1348 1012.17 50.9214 1013.64 49.7148C1015.07 48.8748 1016.95 48.9414 1019.26 49.9148C1019.34 49.9487 1019.41 50.0021 1019.46 50.0701C1019.52 50.1381 1019.55 50.2185 1019.57 50.304C1019.58 50.3895 1019.58 50.4773 1019.55 50.5596C1019.52 50.6418 1019.47 50.7158 1019.41 50.7748C1018.8 51.3481 1018.16 52.0448 1017.51 52.8648C1011.45 60.5048 1005.78 67.5948 1000.5 74.1348C997.354 78.0281 993.394 84.2048 988.621 92.6648Z" fill="#3B427F"/>
<path d="M927.521 89.3848C924.601 88.3714 921.274 88.5614 917.541 89.9548C917.861 89.5548 918.018 89.2381 918.011 89.0048C917.924 85.1048 917.904 81.5914 917.951 78.4648C918.018 74.0514 917.598 70.8248 916.691 68.7848C912.091 58.4648 896.801 58.2148 891.851 68.4448C890.991 70.2181 890.538 73.4414 890.491 78.1148C890.458 81.4081 890.404 84.7048 890.331 88.0048C889.984 86.5381 889.968 85.0748 890.281 83.6148C890.308 83.4836 890.282 83.3472 890.209 83.2349C890.136 83.1226 890.022 83.0436 889.891 83.0148H889.871C889.741 82.9846 889.605 83.0061 889.49 83.0749C889.374 83.1437 889.289 83.2546 889.251 83.3848C888.151 87.2648 885.298 89.2581 880.691 89.3648C880.751 85.6981 880.788 82.0414 880.801 78.3948C880.814 73.4681 881.151 69.8448 881.811 67.5248C884.331 58.6581 890.731 53.2481 901.011 51.2948C911.621 50.3148 922.381 56.4248 926.081 66.4148C927.001 68.9014 927.478 72.7014 927.511 77.8148C927.531 81.6214 927.534 85.4781 927.521 89.3848Z" fill="#EEECF9"/>
<path d="M917.541 89.9548C908.834 89.8281 900.078 89.8114 891.271 89.9048C890.411 89.9181 890.098 89.2848 890.331 88.0048C890.404 84.7048 890.458 81.4081 890.491 78.1148C890.538 73.4414 890.991 70.2181 891.851 68.4448C896.801 58.2148 912.091 58.4648 916.691 68.7848C917.598 70.8248 918.018 74.0514 917.951 78.4648C917.904 81.5914 917.924 85.1048 918.011 89.0048C918.018 89.2381 917.861 89.5548 917.541 89.9548Z" fill="#6332B3"/>
<path d="M980.051 62.9448C980.504 72.5448 979.248 81.8348 976.281 90.8148C975.341 93.6748 973.784 96.8214 971.611 100.255C966.938 107.615 962.374 115.041 957.921 122.535C958.654 113.548 957.704 104.721 955.071 96.0548C954.987 95.7777 955.009 95.4789 955.131 95.2148L958.071 88.9948C964.611 79.6014 971.938 70.9181 980.051 62.9448Z" fill="#65A34B"/>
<path d="M890.331 88.0048C890.098 89.2848 890.411 89.9181 891.271 89.9048C900.078 89.8114 908.834 89.8281 917.541 89.9548C921.274 88.5614 924.601 88.3714 927.521 89.3848C929.054 89.7914 931.521 89.9681 934.921 89.9148C937.894 89.8681 940.391 91.2548 942.411 94.0748C942.018 96.4214 941.514 98.0814 940.901 99.0548C936.494 106.008 933.191 111.258 930.991 114.805C922.831 127.915 912.121 143.455 905.361 155.075C905.305 155.173 905.276 155.285 905.277 155.398C905.277 155.511 905.307 155.622 905.364 155.72C905.42 155.818 905.501 155.899 905.599 155.956C905.697 156.013 905.808 156.044 905.921 156.045H911.681C911.788 156.043 911.892 156.077 911.976 156.142C912.061 156.207 912.121 156.298 912.146 156.402C912.172 156.505 912.162 156.615 912.117 156.711C912.072 156.808 911.996 156.887 911.901 156.935C910.508 157.661 909.694 158.788 909.461 160.315C905.021 164.675 898.601 162.755 894.171 159.585C895.018 159.151 896.548 159.281 898.761 159.975C899.19 160.107 899.647 160.121 900.084 160.013C900.521 159.906 900.921 159.682 901.241 159.365L903.211 157.385C903.285 157.308 903.336 157.212 903.357 157.108C903.379 157.003 903.37 156.895 903.332 156.797C903.294 156.698 903.228 156.613 903.143 156.553C903.057 156.492 902.956 156.458 902.851 156.455L889.591 155.885C887.351 154.095 881.111 149.025 878.171 151.735C877.384 152.455 877.008 153.495 877.041 154.855C868.821 153.435 865.231 145.475 865.361 138.035C865.588 125.795 865.611 112.198 865.431 97.2448C865.424 97.0069 865.462 96.7728 865.541 96.5548C866.594 93.6681 868.364 91.5514 870.851 90.2048C871.738 89.7314 873.308 89.5381 875.561 89.6248C877.328 89.6914 879.038 89.6048 880.691 89.3648C885.298 89.2581 888.151 87.2648 889.251 83.3848C889.289 83.2546 889.374 83.1437 889.49 83.0749C889.605 83.0061 889.741 82.9846 889.871 83.0148H889.891C890.022 83.0436 890.136 83.1226 890.209 83.2349C890.282 83.3472 890.308 83.4836 890.281 83.6148C889.968 85.0748 889.984 86.5381 890.331 88.0048ZM903.031 141.795C905.218 141.808 907.048 140.788 908.521 138.735C908.719 138.457 908.859 138.14 908.931 137.805C909.891 133.445 909.491 128.205 909.651 125.285C909.645 124.863 909.774 124.449 910.021 124.105L911.831 121.615C911.838 121.596 911.845 121.58 911.851 121.565C914.811 114.645 911.131 106.085 903.281 106.025C895.431 105.965 891.631 114.485 894.491 121.445C894.497 121.461 894.504 121.477 894.511 121.495L896.281 124.005C896.526 124.353 896.652 124.77 896.641 125.195C896.751 128.115 896.281 133.345 897.181 137.725C897.25 138.059 897.386 138.376 897.581 138.655C899.021 140.735 900.838 141.781 903.031 141.795Z" fill="#F1FAEF"/>
<path d="M958.071 88.9948L955.131 95.2148C955.009 95.4789 954.987 95.7777 955.071 96.0548C957.704 104.721 958.654 113.548 957.921 122.535C954.091 128.735 950.531 134.445 946.731 141.275C942.251 149.321 937.411 157.188 932.211 164.875C937.044 152.061 940.241 143.268 941.801 138.495C945.148 128.275 946.731 117.208 946.551 105.295L958.071 88.9948Z" fill="#5B965B"/>
<path d="M988.621 92.6648C988.914 98.5314 988.691 104.358 987.951 110.145C988.031 109.638 987.998 109.218 987.851 108.885C987.827 108.834 987.79 108.791 987.743 108.76C987.696 108.728 987.642 108.711 987.587 108.709C987.531 108.707 987.477 108.72 987.43 108.748C987.383 108.775 987.345 108.816 987.321 108.865L983.851 115.515L967.761 142.865C964.981 141.745 963.238 139.441 962.531 135.955C967.091 127.488 974.228 115.358 983.941 99.5648C986.048 96.1381 987.608 93.8381 988.621 92.6648Z" fill="#C9BBEA"/>
<path d="M946.551 105.295C946.731 117.208 945.148 128.275 941.801 138.495C940.241 143.268 937.044 152.061 932.211 164.875C930.864 167.155 929.311 169.291 927.551 171.285C925.704 173.365 924.354 174.931 923.501 175.985C920.811 179.295 916.331 182.805 911.791 183.355C911.501 183.388 911.208 183.361 910.931 183.275L901.711 180.405C902.991 174.998 904.804 169.825 907.151 164.885C907.744 163.638 908.688 162.455 909.981 161.335C914.528 157.415 917.818 152.711 919.851 147.225L946.551 105.295Z" fill="#548765"/>
<path d="M903.281 106.025C911.131 106.085 914.811 114.645 911.851 121.565C911.845 121.58 911.838 121.596 911.831 121.615L910.021 124.105C909.774 124.449 909.645 124.863 909.651 125.285C909.491 128.205 909.891 133.445 908.931 137.805C908.859 138.14 908.719 138.457 908.521 138.735C907.048 140.788 905.218 141.808 903.031 141.795C900.838 141.781 899.021 140.735 897.581 138.655C897.386 138.376 897.25 138.059 897.181 137.725C896.281 133.345 896.751 128.115 896.641 125.195C896.652 124.77 896.526 124.353 896.281 124.005L894.511 121.495C894.504 121.477 894.497 121.461 894.491 121.445C891.631 114.485 895.431 105.965 903.281 106.025Z" fill="#1B1B2F"/>
<path d="M832.321 110.055C833.714 118.628 835.388 125.828 837.341 131.655C838.281 134.448 839.948 138.578 842.341 144.045C843.508 146.718 844.681 149.021 845.861 150.955C847.614 153.841 848.961 156.045 849.901 157.565C852.374 161.591 856.948 167.348 863.621 174.835C865.148 176.541 868.961 179.858 875.061 184.785C879.121 188.058 883.214 190.928 887.341 193.395C894.641 197.748 898.991 200.221 900.391 200.815C902.401 201.665 904.061 202.965 906.451 202.025C906.577 201.975 906.717 201.972 906.845 202.016C906.974 202.06 907.082 202.148 907.151 202.265C908.298 204.238 909.021 206.301 909.321 208.455C909.34 208.597 909.329 208.741 909.29 208.879C909.25 209.016 909.182 209.144 909.091 209.255C907.804 210.775 906.441 211.711 905.001 212.065C904.68 212.141 904.34 212.091 904.051 211.925C897.958 208.338 892.104 205.078 886.491 202.145C883.558 200.605 877.491 196.431 868.291 189.625C866.511 188.311 865.164 187.115 864.251 186.035C862.571 184.035 860.461 182.815 858.691 180.765C856.998 178.811 854.158 175.675 850.171 171.355C846.311 167.185 841.871 159.555 837.541 151.715C835.761 148.508 834.371 145.605 833.371 143.005C831.591 138.385 828.881 133.445 827.491 128.225C825.724 121.545 824.311 114.685 823.251 107.645C825.518 109.971 827.618 111.618 829.551 112.585C830.984 113.298 831.908 112.455 832.321 110.055Z" fill="#6332B3"/>
<path d="M808.751 110.675L812.751 129.945C812.478 131.005 812.144 130.865 811.751 129.525C809.871 123.145 808.358 116.675 807.211 110.115C807.202 110.062 807.204 110.008 807.216 109.956C807.228 109.904 807.25 109.856 807.281 109.813C807.311 109.77 807.35 109.734 807.395 109.707C807.44 109.679 807.489 109.662 807.541 109.655C807.994 109.588 808.398 109.928 808.751 110.675Z" fill="#411E88"/>
<path d="M983.851 115.515L984.651 117.275C984.767 117.514 984.792 117.787 984.721 118.045C982.308 127.131 980.321 133.671 978.761 137.665C969.914 160.298 955.658 179.105 935.991 194.085C935.884 194.164 935.759 194.215 935.627 194.233C935.495 194.251 935.361 194.236 935.237 194.189C935.114 194.142 935.004 194.065 934.919 193.965C934.834 193.864 934.776 193.744 934.751 193.615C934.224 190.921 934.791 188.205 936.451 185.465C938.038 182.845 940.131 180.205 942.731 177.545C951.131 168.955 957.991 159.195 964.341 148.215C964.387 148.134 964.411 148.042 964.411 147.95C964.411 147.857 964.387 147.766 964.341 147.686C964.296 147.605 964.23 147.539 964.151 147.493C964.072 147.448 963.982 147.424 963.891 147.425L961.151 147.415C963.691 146.895 965.894 145.378 967.761 142.865L983.851 115.515Z" fill="#6332B3"/>
<path d="M41.711 118.155L770.291 118.125C770.46 118.125 770.624 118.189 770.748 118.306C770.872 118.423 770.948 118.583 770.961 118.755L770.991 119.075C770.994 119.112 770.989 119.149 770.976 119.184C770.964 119.219 770.945 119.252 770.919 119.279C770.894 119.306 770.863 119.328 770.829 119.342C770.795 119.357 770.758 119.365 770.721 119.365L114.611 119.505L1.01097 119.485C0.8416 119.485 0.678338 119.423 0.55403 119.31C0.429723 119.197 0.353598 119.041 0.340968 118.875L0.320968 118.625C0.316901 118.576 0.323126 118.527 0.339263 118.48C0.3554 118.434 0.381109 118.391 0.414813 118.355C0.448517 118.318 0.489508 118.289 0.535273 118.268C0.581039 118.247 0.630617 118.236 0.680968 118.235L41.711 118.155Z" fill="white"/>
<path d="M967.761 142.865C965.894 145.378 963.691 146.895 961.151 147.415L956.131 147.395L962.531 135.955C963.238 139.441 964.981 141.745 967.761 142.865Z" fill="#8047D4"/>
<path d="M919.851 147.225C917.818 152.711 914.528 157.415 909.981 161.335C908.688 162.455 907.744 163.638 907.151 164.885C904.804 169.825 902.991 174.998 901.711 180.405L895.071 175.465C895.014 175.423 894.948 175.397 894.878 175.388C894.808 175.38 894.738 175.389 894.676 175.416C894.613 175.443 894.561 175.487 894.525 175.541C894.489 175.595 894.47 175.659 894.471 175.725C894.471 175.831 894.411 175.941 894.291 176.055C890.244 171.028 886.558 165.671 883.231 159.985C882.551 158.825 881.084 157.331 878.831 155.505C882.984 157.071 887.191 157.821 891.451 157.755C892.264 158.561 893.171 159.171 894.171 159.585C898.601 162.755 905.021 164.675 909.461 160.315C913.991 156.555 916.611 151.995 919.851 147.225Z" fill="#486767"/>
<path d="M889.591 155.885L891.451 157.755C887.191 157.821 882.984 157.071 878.831 155.505L877.041 154.855C877.008 153.495 877.384 152.455 878.171 151.735C881.111 149.025 887.351 154.095 889.591 155.885Z" fill="#75B442"/>
<path d="M287.105 151.45L280.925 151.439C280.721 151.439 280.555 151.604 280.555 151.809L280.487 190.269C280.487 190.473 280.652 190.639 280.857 190.639L287.037 190.65C287.241 190.65 287.407 190.485 287.407 190.281L287.475 151.821C287.475 151.616 287.31 151.451 287.105 151.45Z" fill="white"/>
<path d="M414.761 167.295C414.791 167.341 414.835 167.377 414.887 167.395C414.94 167.414 414.996 167.415 415.049 167.398C415.102 167.38 415.147 167.346 415.178 167.301C415.209 167.255 415.224 167.2 415.221 167.145V151.615C415.221 151.562 415.242 151.511 415.28 151.473C415.317 151.436 415.368 151.415 415.421 151.415H421.431C421.516 151.415 421.597 151.448 421.657 151.508C421.717 151.569 421.751 151.65 421.751 151.735V189.665C421.751 189.866 421.67 190.06 421.525 190.202C421.381 190.345 421.185 190.425 420.981 190.425H415.931C415.836 190.425 415.742 190.403 415.657 190.361C415.571 190.319 415.497 190.258 415.439 190.183C415.381 190.107 415.341 190.02 415.322 189.926C415.303 189.833 415.306 189.737 415.331 189.645L415.801 187.755C415.837 187.619 415.824 187.474 415.765 187.347C415.705 187.219 415.603 187.117 415.475 187.057C415.348 186.998 415.203 186.985 415.067 187.021C414.931 187.057 414.812 187.14 414.731 187.255C412.798 189.955 410.024 191.215 406.411 191.035C395.971 190.505 394.181 177.505 397.361 169.955C398.788 166.581 401.251 164.518 404.751 163.765C409.004 162.851 412.341 164.028 414.761 167.295ZM415.063 173.879C415.038 173.151 414.869 172.435 414.567 171.772C414.265 171.108 413.835 170.511 413.302 170.014C412.769 169.517 412.143 169.13 411.46 168.875C410.778 168.619 410.051 168.501 409.323 168.527L408.543 168.554C407.072 168.605 405.682 169.239 404.678 170.315C403.674 171.392 403.139 172.823 403.19 174.294L403.419 180.83C403.444 181.558 403.613 182.275 403.915 182.938C404.217 183.601 404.647 184.198 405.18 184.695C405.713 185.192 406.339 185.58 407.022 185.835C407.704 186.09 408.431 186.208 409.159 186.183L409.939 186.156C411.41 186.104 412.8 185.471 413.804 184.394C414.808 183.318 415.343 181.887 415.291 180.415L415.063 173.879Z" fill="white"/>
<path d="M761.521 188.855C761.614 189.181 761.651 189.498 761.631 189.805C761.623 189.967 761.554 190.119 761.436 190.231C761.319 190.343 761.163 190.405 761.001 190.405H756.201C756.064 190.405 755.929 190.374 755.805 190.315C755.682 190.256 755.573 190.169 755.486 190.062C755.4 189.955 755.339 189.829 755.307 189.695C755.275 189.56 755.273 189.42 755.301 189.285C755.481 188.411 755.448 187.795 755.201 187.435C755.154 187.364 755.092 187.306 755.018 187.264C754.945 187.222 754.862 187.198 754.777 187.193C754.692 187.188 754.607 187.203 754.528 187.236C754.448 187.269 754.378 187.32 754.321 187.385C750.634 191.711 746.141 192.325 740.841 189.225C739.414 188.391 738.128 186.641 736.981 183.975C736.201 182.148 735.864 179.248 735.971 175.275C736.058 172.021 737.164 169.088 739.291 166.475C744.638 162.228 749.754 162.481 754.641 167.235C754.667 167.264 754.702 167.284 754.741 167.292C754.779 167.301 754.819 167.297 754.856 167.282C754.892 167.266 754.922 167.24 754.943 167.207C754.964 167.173 754.973 167.134 754.971 167.095V152.155C754.971 152.109 754.98 152.063 754.998 152.021C755.015 151.978 755.041 151.94 755.074 151.907C755.106 151.875 755.145 151.849 755.187 151.831C755.23 151.814 755.275 151.805 755.321 151.805H761.041C761.118 151.805 761.192 151.835 761.246 151.89C761.3 151.944 761.331 152.018 761.331 152.095L761.521 188.855ZM754.953 174.417C754.96 173.686 754.824 172.96 754.551 172.282C754.278 171.603 753.874 170.985 753.362 170.462C752.851 169.939 752.241 169.523 751.568 169.236C750.895 168.949 750.173 168.797 749.441 168.789L748.661 168.781C747.93 168.774 747.204 168.91 746.525 169.183C745.847 169.456 745.228 169.859 744.706 170.371C744.183 170.883 743.767 171.493 743.48 172.166C743.193 172.838 743.041 173.561 743.033 174.293L742.969 180.392C742.962 181.124 743.098 181.849 743.371 182.528C743.644 183.207 744.048 183.825 744.559 184.348C745.071 184.87 745.681 185.287 746.354 185.574C747.027 185.861 747.749 186.013 748.481 186.02L749.261 186.028C749.992 186.036 750.718 185.9 751.397 185.627C752.075 185.354 752.694 184.95 753.216 184.438C753.739 183.926 754.155 183.317 754.442 182.644C754.729 181.971 754.881 181.248 754.889 180.517L754.953 174.417Z" fill="white"/>
<path d="M300.411 152.505C300.644 152.625 300.751 152.825 300.731 153.105L300.581 158.965C300.578 159.058 300.54 159.147 300.475 159.213C300.41 159.278 300.322 159.315 300.231 159.315H294.081C294.004 159.315 293.93 159.284 293.876 159.23C293.822 159.175 293.791 159.102 293.791 159.025V152.985C293.791 152.844 293.847 152.709 293.946 152.61C294.046 152.511 294.18 152.455 294.321 152.455L300.411 152.505Z" fill="white"/>
<path d="M178.601 182.635C178.611 182.592 178.631 182.553 178.658 182.52C178.686 182.486 178.721 182.46 178.761 182.442C178.801 182.425 178.844 182.417 178.887 182.419C178.931 182.421 178.973 182.433 179.011 182.455C183.278 184.908 187.968 185.805 193.081 185.145C198.521 184.445 198.401 177.095 193.621 175.815C189.201 174.635 186.408 173.855 185.241 173.475C178.541 171.285 176.271 163.985 179.601 158.075C181.268 155.121 184.378 153.431 188.931 153.005C194.018 152.531 198.791 153.225 203.251 155.085C203.344 155.123 203.419 155.194 203.461 155.285C203.504 155.376 203.511 155.479 203.481 155.575L201.881 160.465C201.867 160.509 201.844 160.551 201.813 160.585C201.781 160.62 201.743 160.648 201.699 160.667C201.656 160.686 201.608 160.695 201.56 160.695C201.512 160.695 201.465 160.684 201.421 160.665C197.061 158.698 192.601 158.205 188.041 159.185C187.319 159.341 186.66 159.71 186.15 160.245C185.64 160.78 185.302 161.456 185.181 162.185C184.754 164.791 185.944 166.535 188.751 167.415C192.284 168.521 195.664 169.718 198.891 171.005C201.638 172.098 203.328 174.031 203.961 176.805C206.481 187.865 197.321 191.585 188.131 190.855C184.604 190.575 181.124 189.715 177.691 188.275C177.562 188.219 177.457 188.12 177.394 187.995C177.332 187.871 177.317 187.729 177.351 187.595L178.601 182.635Z" fill="white"/>
<path d="M499.481 155.625C498.428 157.511 497.984 159.158 498.151 160.565C498.16 160.632 498.151 160.7 498.123 160.762C498.095 160.824 498.051 160.877 497.994 160.915C497.938 160.952 497.872 160.973 497.804 160.975C497.736 160.977 497.669 160.959 497.611 160.925C495.064 159.478 492.534 158.778 490.021 158.825C487.231 158.875 484.611 158.825 482.421 160.335C482.126 160.538 481.892 160.814 481.741 161.135C479.811 165.325 482.831 166.865 486.451 167.945C493.651 170.095 501.251 171.675 500.371 180.745C499.878 185.838 496.904 189.038 491.451 190.345C485.364 191.798 479.348 191.128 473.401 188.335C473.328 188.3 473.263 188.251 473.211 188.19C473.158 188.129 473.118 188.057 473.095 187.98C473.071 187.903 473.064 187.822 473.074 187.741C473.084 187.661 473.11 187.584 473.151 187.515C473.931 186.195 474.294 184.718 474.241 183.085C474.24 183.025 474.255 182.965 474.284 182.913C474.314 182.86 474.357 182.817 474.409 182.786C474.46 182.756 474.519 182.739 474.58 182.739C474.64 182.739 474.699 182.755 474.751 182.785C479.378 185.525 484.568 186.248 490.321 184.955C493.541 184.235 493.751 180.115 492.211 177.875C491.011 176.125 486.061 175.215 482.541 174.095C474.488 171.528 472.024 166.111 475.151 157.845C475.444 157.085 476.604 155.935 478.631 154.395C485.791 152.075 492.741 152.485 499.481 155.625Z" fill="white"/>
<path d="M105.411 183.475C105.464 183.447 105.524 183.434 105.583 183.436C105.643 183.438 105.702 183.456 105.753 183.487C105.804 183.518 105.846 183.562 105.876 183.614C105.905 183.666 105.921 183.725 105.921 183.785C105.914 185.098 106.228 186.265 106.861 187.285C106.902 187.353 106.93 187.429 106.942 187.507C106.954 187.586 106.95 187.667 106.93 187.744C106.911 187.821 106.876 187.894 106.828 187.957C106.78 188.021 106.72 188.075 106.651 188.115C98.631 192.785 88.081 192.465 81.111 185.715C76.621 181.375 75.591 172.245 77.081 166.725C79.0276 159.538 83.211 155.165 89.631 153.605C95.111 152.278 100.921 152.885 107.061 155.425C107.169 155.47 107.265 155.54 107.342 155.627C107.419 155.715 107.474 155.82 107.504 155.932C107.534 156.044 107.538 156.161 107.515 156.275C107.492 156.388 107.442 156.494 107.371 156.585C106.558 157.645 106.031 158.881 105.791 160.295C105.772 160.397 105.73 160.494 105.668 160.578C105.605 160.661 105.524 160.729 105.431 160.775C105.338 160.822 105.235 160.846 105.131 160.846C105.027 160.846 104.924 160.822 104.831 160.775C97.631 157.095 86.451 157.315 84.411 167.075C82.741 175.005 84.291 185.345 94.441 185.675C98.6276 185.815 102.284 185.081 105.411 183.475Z" fill="white"/>
<path d="M232.501 160.895C229.001 159.305 218.521 156.635 216.521 161.315C214.291 166.515 220.951 167.775 225.121 169.085C232.011 171.255 236.521 173.925 235.511 182.055C234.901 186.915 229.981 190.085 225.391 190.675C219.598 191.421 214.188 190.688 209.161 188.475C209.037 188.421 208.931 188.331 208.858 188.217C208.785 188.103 208.748 187.97 208.751 187.835L208.881 183.155C208.884 183.054 208.912 182.955 208.963 182.868C209.014 182.78 209.086 182.707 209.173 182.655C209.26 182.604 209.358 182.575 209.459 182.571C209.56 182.567 209.661 182.589 209.751 182.635C212.911 184.275 226.701 188.475 228.091 182.235C228.791 179.088 227.731 177.028 224.911 176.055C220.501 174.545 215.481 173.895 211.721 170.735C210.628 169.815 209.874 168.705 209.461 167.405C208.221 163.531 209.038 159.875 211.911 156.435C218.464 152.108 225.971 151.748 234.431 155.355C234.481 155.376 234.527 155.406 234.565 155.444C234.603 155.483 234.633 155.529 234.654 155.579C234.674 155.629 234.684 155.683 234.684 155.737C234.684 155.791 234.672 155.845 234.651 155.895L232.501 160.895Z" fill="white"/>
<path d="M512.351 161.965C511.698 164.685 512.724 166.461 515.431 167.295C520.544 168.868 523.814 169.918 525.241 170.445C530.291 172.315 531.761 176.205 531.321 181.275C530.601 189.525 520.121 191.935 513.541 190.925C510.301 190.425 507.064 189.595 503.831 188.435C503.755 188.406 503.688 188.36 503.633 188.301C503.578 188.241 503.538 188.17 503.516 188.092C503.493 188.015 503.49 187.933 503.504 187.853C503.519 187.774 503.552 187.699 503.601 187.635C504.681 186.195 505.154 184.645 505.021 182.985C505.012 182.891 505.033 182.797 505.08 182.715C505.126 182.634 505.197 182.568 505.282 182.528C505.367 182.487 505.462 182.474 505.555 182.49C505.648 182.505 505.734 182.549 505.801 182.615C509.561 186.115 525.671 188.225 524.021 179.445C523.761 178.045 522.951 177.111 521.591 176.645C516.821 174.985 506.651 173.515 505.351 167.255C505.124 166.181 504.988 165.008 504.941 163.735C504.761 158.835 507.114 155.461 512.001 153.615C518.114 152.515 524.064 152.948 529.851 154.915C529.925 154.94 529.994 154.981 530.05 155.036C530.107 155.09 530.152 155.157 530.18 155.23C530.209 155.303 530.221 155.382 530.216 155.461C530.211 155.539 530.189 155.616 530.151 155.685C529.371 157.131 529.074 158.715 529.261 160.435C529.267 160.5 529.256 160.567 529.228 160.627C529.201 160.687 529.159 160.738 529.106 160.776C529.053 160.814 528.991 160.836 528.927 160.841C528.863 160.846 528.798 160.834 528.741 160.805C524.228 158.618 519.488 158.235 514.521 159.655C513.361 159.981 512.638 160.751 512.351 161.965Z" fill="white"/>
<path d="M119.101 153.765H113.201C112.969 153.765 112.781 153.953 112.781 154.185V190.025C112.781 190.257 112.969 190.445 113.201 190.445H119.101C119.333 190.445 119.521 190.257 119.521 190.025V154.185C119.521 153.953 119.333 153.765 119.101 153.765Z" fill="white"/>
<path d="M140.291 154.035C140.291 153.942 140.328 153.853 140.393 153.787C140.459 153.722 140.548 153.685 140.641 153.685L155.241 153.635C160.004 153.62 164.578 155.372 167.957 158.505C171.336 161.639 173.243 165.897 173.261 170.345L173.281 173.605C173.29 175.81 172.833 177.995 171.937 180.035C171.041 182.075 169.723 183.931 168.059 185.496C166.395 187.061 164.417 188.304 162.238 189.155C160.059 190.006 157.722 190.448 155.361 190.455L140.761 190.505C140.668 190.505 140.579 190.468 140.513 190.402C140.448 190.337 140.411 190.248 140.411 190.155L140.291 154.035ZM147.281 159.975L147.361 184.415C147.361 184.521 147.382 184.626 147.423 184.723C147.464 184.821 147.523 184.91 147.599 184.984C147.674 185.058 147.764 185.117 147.862 185.157C147.96 185.196 148.065 185.216 148.171 185.215L154.821 185.195C156.262 185.19 157.687 184.887 159.016 184.304C160.345 183.721 161.552 182.869 162.567 181.796C163.582 180.723 164.385 179.452 164.932 178.053C165.478 176.654 165.756 175.156 165.751 173.645L165.731 170.625C165.72 167.572 164.554 164.649 162.489 162.498C160.424 160.347 157.63 159.145 154.721 159.155L148.071 159.175C147.861 159.177 147.66 159.263 147.512 159.413C147.364 159.562 147.281 159.764 147.281 159.975Z" fill="white"/>
<path d="M544.001 153.985V184.415C544.001 184.516 544.041 184.612 544.112 184.683C544.184 184.755 544.28 184.795 544.381 184.795H560.681C560.782 184.795 560.878 184.835 560.95 184.906C561.021 184.977 561.061 185.074 561.061 185.175V190.205C561.061 190.306 561.021 190.402 560.95 190.473C560.878 190.545 560.782 190.585 560.681 190.585H537.341C537.24 190.585 537.144 190.545 537.072 190.473C537.001 190.402 536.961 190.306 536.961 190.205V153.985C536.961 153.884 537.001 153.787 537.072 153.716C537.144 153.645 537.24 153.605 537.341 153.605H543.621C543.722 153.605 543.818 153.645 543.89 153.716C543.961 153.787 544.001 153.884 544.001 153.985Z" fill="white"/>
<path d="M46.481 153.815C52.6943 153.868 56.4443 153.885 57.731 153.865C63.691 153.755 69.221 155.095 71.911 160.435C74.111 164.785 73.341 170.735 69.451 174.035C65.161 177.685 58.801 177.625 53.081 177.655C52.9103 177.657 52.7475 177.727 52.6278 177.849C52.5081 177.97 52.4409 178.134 52.441 178.305V190.155C52.441 190.224 52.4125 190.29 52.3619 190.339C52.3113 190.387 52.2426 190.415 52.171 190.415H46.181C46.0987 190.415 46.0199 190.383 45.9618 190.327C45.9036 190.271 45.871 190.194 45.871 190.115V154.425C45.871 154.263 45.9352 154.108 46.0496 153.993C46.164 153.879 46.3192 153.815 46.481 153.815ZM52.491 159.385L52.371 171.685C52.3709 171.76 52.4001 171.832 52.4523 171.886C52.5046 171.94 52.5758 171.972 52.651 171.975L59.241 172.045C61.0015 172.063 62.6963 171.451 63.9528 170.345C65.2092 169.238 65.9243 167.728 65.941 166.145L65.951 165.205C65.9678 163.622 65.2852 162.097 64.0533 160.965C62.8214 159.832 61.1408 159.185 59.381 159.165L52.791 159.095C52.752 159.093 52.7133 159.1 52.6769 159.114C52.6406 159.128 52.6074 159.149 52.5794 159.176C52.5514 159.203 52.5292 159.236 52.514 159.271C52.4988 159.307 52.4909 159.346 52.491 159.385Z" fill="white"/>
<path d="M894.171 159.585C893.171 159.171 892.264 158.561 891.451 157.755L889.591 155.885L902.851 156.455C902.956 156.458 903.057 156.492 903.143 156.553C903.228 156.613 903.294 156.698 903.332 156.797C903.37 156.895 903.379 157.003 903.358 157.108C903.336 157.212 903.285 157.308 903.211 157.385L901.241 159.365C900.921 159.682 900.521 159.906 900.084 160.013C899.647 160.121 899.19 160.107 898.761 159.975C896.548 159.281 895.018 159.151 894.171 159.585Z" fill="#C9BBEA"/>
<path d="M359.091 165.055C363.231 168.205 362.911 172.185 362.711 177.075L362.881 189.995C362.882 190.072 362.868 190.148 362.84 190.22C362.811 190.291 362.769 190.356 362.715 190.411C362.661 190.466 362.596 190.51 362.525 190.54C362.454 190.569 362.378 190.585 362.301 190.585H356.291C356.22 190.585 356.149 190.571 356.083 190.543C356.018 190.516 355.958 190.476 355.909 190.425C355.859 190.375 355.821 190.315 355.795 190.25C355.77 190.184 355.758 190.115 355.761 190.045C355.968 183.018 356.048 177.491 356.001 173.465C355.921 166.165 347.191 168.195 344.871 172.495C344.825 172.587 344.801 172.686 344.801 172.785V190.085C344.801 190.212 344.75 190.334 344.66 190.424C344.57 190.514 344.448 190.565 344.321 190.565H338.581C338.478 190.565 338.378 190.524 338.305 190.451C338.232 190.377 338.191 190.278 338.191 190.175V165.015C338.191 164.803 338.275 164.599 338.425 164.449C338.575 164.299 338.779 164.215 338.991 164.215H343.581C343.756 164.215 343.924 164.284 344.048 164.408C344.171 164.532 344.241 164.7 344.241 164.875V167.575C344.242 167.642 344.263 167.707 344.302 167.761C344.341 167.816 344.396 167.857 344.459 167.88C344.521 167.902 344.59 167.906 344.655 167.889C344.719 167.872 344.777 167.835 344.821 167.785C348.628 163.038 353.384 162.128 359.091 165.055Z" fill="white"/>
<path d="M595.921 170.535C593.801 169.661 591.704 169.101 589.631 168.855C587.361 168.585 583.571 168.245 583.101 170.905C582.982 171.576 583.127 172.268 583.506 172.832C583.885 173.396 584.468 173.788 585.131 173.925C587.671 174.445 590.151 175.061 592.571 175.775C599.621 177.865 599.401 187.935 592.351 189.995C587.118 191.515 581.848 191.191 576.541 189.025C576.447 188.987 576.371 188.916 576.325 188.826C576.279 188.736 576.267 188.633 576.291 188.535L577.401 184.125C577.409 184.09 577.426 184.057 577.449 184.03C577.473 184.003 577.503 183.983 577.537 183.97C577.57 183.957 577.606 183.952 577.642 183.957C577.677 183.961 577.712 183.974 577.741 183.995C579.621 185.201 581.761 185.855 584.161 185.955C586.608 186.655 588.734 186.348 590.541 185.035C590.939 184.747 591.214 184.319 591.311 183.837C591.407 183.355 591.318 182.854 591.061 182.435C590.541 181.581 589.701 180.981 588.541 180.635C582.651 178.895 575.851 177.805 577.031 169.795C577.961 163.445 586.691 162.655 591.451 163.775C593.751 164.315 595.631 164.758 597.091 165.105C597.162 165.121 597.229 165.154 597.284 165.202C597.339 165.25 597.382 165.311 597.409 165.38C597.435 165.449 597.445 165.523 597.436 165.597C597.428 165.671 597.402 165.743 597.361 165.805C596.481 167.118 596.001 168.695 595.921 170.535Z" fill="white"/>
<path d="M704.751 169.735C703.964 169.835 703.111 169.848 702.191 169.775C697.031 169.365 694.571 171.675 694.521 176.985C694.468 183.151 694.461 187.481 694.501 189.975C694.502 190.025 694.493 190.076 694.474 190.123C694.455 190.17 694.427 190.214 694.39 190.25C694.354 190.286 694.311 190.315 694.263 190.335C694.215 190.355 694.163 190.365 694.111 190.365H688.461C688.347 190.365 688.238 190.319 688.157 190.239C688.076 190.158 688.031 190.049 688.031 189.935L688.151 164.375L694.021 164.195C694.089 164.193 694.157 164.206 694.219 164.235C694.281 164.264 694.336 164.306 694.379 164.36C694.421 164.413 694.451 164.476 694.465 164.542C694.48 164.609 694.478 164.679 694.461 164.745L693.711 167.685C693.671 167.865 693.696 168.053 693.783 168.216C693.87 168.378 694.012 168.504 694.184 168.571C694.356 168.637 694.546 168.64 694.72 168.578C694.894 168.517 695.039 168.395 695.131 168.235C697.098 164.595 700.328 163.048 704.821 163.595C704.918 163.605 705.008 163.653 705.071 163.729C705.135 163.806 705.167 163.904 705.161 164.005L704.751 169.735Z" fill="white"/>
<path d="M713.621 164.735L716.661 163.555C723.394 162.581 728.164 164.695 730.971 169.895C732.521 172.775 732.031 175.325 732.331 178.285C732.339 178.371 732.33 178.458 732.302 178.54C732.275 178.623 732.23 178.698 732.172 178.763C732.114 178.827 732.042 178.878 731.963 178.913C731.884 178.947 731.798 178.965 731.711 178.965H714.651C714.458 178.966 714.268 179.016 714.1 179.112C713.932 179.208 713.792 179.346 713.694 179.511C713.596 179.677 713.543 179.865 713.541 180.057C713.539 180.249 713.587 180.438 713.681 180.605L715.331 183.545C715.65 184.121 716.092 184.62 716.626 185.007C717.16 185.394 717.772 185.659 718.421 185.785C723.134 186.678 727.004 186.015 730.031 183.795C730.104 183.738 730.191 183.703 730.283 183.692C730.375 183.682 730.468 183.696 730.552 183.734C730.636 183.772 730.708 183.832 730.761 183.908C730.814 183.984 730.845 184.073 730.851 184.165L731.161 188.085C731.172 188.243 731.134 188.402 731.052 188.538C730.969 188.674 730.847 188.781 730.701 188.845C724.141 191.735 716.431 192.335 711.061 187.385C708.201 184.751 706.954 180.895 707.321 175.815C707.688 170.821 709.788 167.128 713.621 164.735ZM714.721 174.605L725.381 174.475C725.562 174.472 725.735 174.398 725.862 174.269C725.99 174.14 726.061 173.966 726.061 173.785V173.635C726.053 172.901 725.903 172.176 725.621 171.502C725.339 170.827 724.929 170.216 724.415 169.704C723.902 169.191 723.294 168.787 722.628 168.514C721.961 168.241 721.249 168.106 720.531 168.115L719.411 168.135C717.964 168.153 716.584 168.757 715.574 169.814C714.563 170.872 714.005 172.296 714.021 173.775V173.925C714.022 174.015 714.041 174.105 714.077 174.188C714.113 174.271 714.165 174.347 714.23 174.41C714.295 174.473 714.372 174.523 714.456 174.556C714.54 174.59 714.63 174.606 714.721 174.605Z" fill="white"/>
<path d="M254.451 170.795C254.394 170.825 254.331 170.84 254.267 170.838C254.202 170.835 254.14 170.816 254.086 170.781C254.032 170.746 253.988 170.698 253.959 170.64C253.93 170.583 253.917 170.519 253.921 170.455C254.021 169.055 253.731 167.775 253.051 166.615C253.017 166.554 252.996 166.488 252.989 166.419C252.983 166.35 252.99 166.28 253.012 166.214C253.034 166.148 253.069 166.088 253.115 166.036C253.161 165.985 253.218 165.943 253.281 165.915C257.214 164.188 260.608 163.391 263.461 163.525C271.188 163.891 274.861 168.065 274.481 176.045C274.341 178.878 274.364 183.508 274.551 189.935C274.552 189.997 274.541 190.06 274.518 190.118C274.495 190.176 274.461 190.229 274.417 190.274C274.373 190.318 274.321 190.354 274.263 190.378C274.205 190.402 274.144 190.415 274.081 190.415H268.541C268.484 190.415 268.427 190.403 268.374 190.381C268.321 190.359 268.273 190.326 268.233 190.285C268.193 190.244 268.162 190.196 268.141 190.142C268.12 190.089 268.11 190.032 268.111 189.975L268.161 188.015C268.164 187.895 268.129 187.778 268.062 187.679C267.996 187.58 267.9 187.503 267.788 187.461C267.677 187.418 267.555 187.411 267.439 187.44C267.323 187.47 267.219 187.534 267.141 187.625C264.688 190.505 261.404 191.588 257.291 190.875C251.371 189.855 249.411 183.425 252.481 178.355C254.601 174.845 262.481 174.475 265.941 174.645C266.228 174.658 266.514 174.598 266.773 174.472C267.031 174.345 267.253 174.156 267.419 173.922C267.584 173.687 267.688 173.415 267.72 173.131C267.751 172.847 267.711 172.559 267.601 172.295L267.051 170.965C266.799 170.35 266.378 169.82 265.837 169.434C265.295 169.048 264.656 168.823 263.991 168.785C260.451 168.571 257.271 169.241 254.451 170.795ZM266.821 178.835C263.601 178.935 258.061 178.745 258.051 182.355C258.038 185.461 259.674 186.751 262.961 186.225C266.654 185.638 268.158 183.355 267.471 179.375C267.447 179.223 267.368 179.084 267.249 178.985C267.129 178.886 266.977 178.833 266.821 178.835Z" fill="white"/>
<path d="M325.591 164.075L331.101 164.265C331.259 164.27 331.409 164.337 331.519 164.45C331.63 164.564 331.691 164.716 331.691 164.875C331.741 176.765 332.081 183.685 331.561 190.965C331.091 197.675 325.581 201.295 319.091 201.445C315.411 201.538 311.638 200.901 307.771 199.535C307.713 199.514 307.661 199.482 307.616 199.439C307.572 199.397 307.537 199.346 307.514 199.29C307.49 199.233 307.479 199.173 307.48 199.112C307.481 199.05 307.495 198.99 307.521 198.935C308.194 197.468 308.501 195.821 308.441 193.995C308.439 193.906 308.462 193.818 308.509 193.742C308.556 193.666 308.623 193.606 308.704 193.568C308.784 193.53 308.874 193.516 308.962 193.527C309.051 193.539 309.134 193.577 309.201 193.635C312.761 196.725 321.231 197.865 324.511 193.745C324.674 193.542 324.775 193.299 324.801 193.045L325.411 187.385C325.422 187.299 325.406 187.213 325.366 187.137C325.325 187.061 325.261 187 325.184 186.962C325.106 186.925 325.019 186.912 324.934 186.927C324.849 186.942 324.771 186.983 324.711 187.045C323.151 188.575 322.301 189.635 320.481 190.015C311.721 191.875 306.021 186.045 306.211 177.505C305.961 172.345 307.761 166.005 313.181 164.275C318.001 162.741 321.898 163.918 324.871 167.805C324.921 167.872 324.992 167.922 325.072 167.947C325.152 167.972 325.238 167.971 325.317 167.944C325.397 167.918 325.466 167.867 325.515 167.799C325.565 167.731 325.591 167.649 325.591 167.565V164.075ZM325.094 174.04C325.071 172.542 324.453 171.114 323.377 170.071C322.301 169.028 320.854 168.456 319.356 168.479L318.536 168.492C317.038 168.516 315.61 169.134 314.568 170.21C313.525 171.286 312.952 172.732 312.976 174.23L313.068 180.09C313.091 181.588 313.709 183.015 314.785 184.058C315.861 185.101 317.307 185.674 318.806 185.65L319.626 185.637C321.124 185.614 322.552 184.996 323.594 183.92C324.637 182.844 325.21 181.398 325.186 179.899L325.094 174.04Z" fill="white"/>
<path d="M390.121 184.015C390.175 183.981 390.237 183.962 390.301 183.961C390.364 183.959 390.427 183.974 390.483 184.004C390.539 184.035 390.586 184.08 390.619 184.134C390.652 184.189 390.67 184.251 390.671 184.315C390.678 185.675 390.981 186.941 391.581 188.115C391.611 188.174 391.628 188.239 391.632 188.306C391.637 188.372 391.627 188.439 391.605 188.502C391.582 188.566 391.548 188.624 391.502 188.674C391.457 188.725 391.402 188.766 391.341 188.795C383.331 192.495 370.581 192.685 367.831 181.705C365.951 174.205 369.051 164.815 377.791 163.645C385.038 162.665 389.801 165.465 392.081 172.045C392.501 173.251 392.574 175.448 392.301 178.635C392.288 178.789 392.217 178.932 392.101 179.034C391.986 179.136 391.835 179.19 391.681 179.185L375.171 178.745C374.842 178.737 374.518 178.822 374.235 178.989C373.952 179.156 373.722 179.399 373.57 179.691C373.418 179.982 373.351 180.31 373.376 180.638C373.401 180.966 373.517 181.28 373.711 181.545L375.121 183.465C375.726 184.287 376.516 184.956 377.428 185.418C378.34 185.88 379.348 186.122 380.371 186.125C384.718 186.125 387.968 185.421 390.121 184.015ZM373.991 174.725L385.591 174.445C385.626 174.443 385.661 174.435 385.694 174.42C385.726 174.406 385.755 174.385 385.779 174.359C385.803 174.333 385.822 174.302 385.834 174.269C385.847 174.236 385.852 174.2 385.851 174.165V173.995C385.831 173.207 385.657 172.43 385.338 171.71C385.019 170.989 384.561 170.339 383.991 169.796C383.421 169.252 382.749 168.827 382.015 168.544C381.281 168.26 380.498 168.125 379.711 168.145H379.551C378.764 168.164 377.989 168.339 377.27 168.658C376.55 168.978 375.901 169.436 375.359 170.008C374.816 170.579 374.392 171.251 374.109 171.987C373.826 172.723 373.691 173.507 373.711 174.295V174.465C373.712 174.5 373.721 174.535 373.735 174.567C373.75 174.6 373.771 174.629 373.797 174.653C373.823 174.677 373.854 174.696 373.887 174.708C373.92 174.72 373.956 174.726 373.991 174.725Z" fill="white"/>
<path d="M624.741 184.035L625.871 187.645C625.929 187.834 625.917 188.037 625.838 188.217C625.759 188.398 625.618 188.542 625.441 188.625C617.501 192.375 604.001 192.485 601.781 181.035C600.301 173.415 602.591 166.395 610.521 163.855C617.191 162.665 623.431 164.255 625.841 171.085C626.694 173.498 626.974 175.948 626.681 178.435C626.664 178.579 626.595 178.711 626.488 178.807C626.381 178.903 626.243 178.956 626.101 178.955H609.861C609.534 178.956 609.214 179.047 608.935 179.219C608.657 179.391 608.432 179.637 608.285 179.929C608.138 180.221 608.075 180.548 608.102 180.874C608.13 181.2 608.247 181.512 608.441 181.775L609.581 183.315C610.203 184.191 611.018 184.911 611.964 185.417C612.91 185.924 613.96 186.204 615.031 186.235C618.504 186.328 621.741 185.595 624.741 184.035ZM608.761 174.445L620.161 174.565C620.217 174.565 620.273 174.554 620.326 174.532C620.378 174.51 620.425 174.479 620.465 174.439C620.505 174.399 620.537 174.352 620.558 174.299C620.58 174.247 620.591 174.191 620.591 174.135V173.985C620.599 173.22 620.459 172.462 620.178 171.753C619.898 171.044 619.482 170.397 618.956 169.851C618.429 169.305 617.802 168.87 617.109 168.57C616.417 168.271 615.674 168.113 614.921 168.105H614.121C612.601 168.089 611.138 168.687 610.052 169.767C608.966 170.847 608.347 172.321 608.331 173.865V174.015C608.331 174.129 608.376 174.238 608.457 174.319C608.538 174.399 608.647 174.445 608.761 174.445Z" fill="white"/>
<path d="M652.851 166.695C652.211 167.621 651.841 168.811 651.741 170.265C651.736 170.341 651.71 170.415 651.667 170.478C651.624 170.541 651.564 170.592 651.495 170.625C651.426 170.657 651.349 170.671 651.273 170.664C651.196 170.657 651.123 170.63 651.061 170.585C645.921 166.745 638.561 167.795 637.351 175.055C636.191 182.055 639.931 187.685 647.811 185.665C648.838 185.398 650.154 184.691 651.761 183.545C651.805 183.51 651.858 183.49 651.914 183.486C651.97 183.482 652.025 183.495 652.074 183.523C652.122 183.551 652.161 183.592 652.186 183.643C652.21 183.693 652.219 183.749 652.211 183.805C652.058 185.385 652.278 186.818 652.871 188.105C652.94 188.255 652.947 188.426 652.891 188.581C652.835 188.736 652.72 188.863 652.571 188.935C646.061 192.155 637.471 192.205 632.671 185.975C626.961 176.205 630.731 163.795 643.561 163.555C646.661 163.501 649.761 164.128 652.861 165.435C653.208 165.581 653.204 166.001 652.851 166.695Z" fill="white"/>
<path d="M300.204 164.21L294.404 164.2C294.144 164.199 293.934 164.409 293.933 164.669L293.889 190.129C293.888 190.388 294.098 190.599 294.358 190.6L300.158 190.61C300.417 190.61 300.628 190.4 300.629 190.141L300.673 164.681C300.674 164.421 300.464 164.21 300.204 164.21Z" fill="white"/>
<path d="M681.681 164.495L681.861 189.755C681.862 189.848 681.845 189.94 681.811 190.026C681.777 190.112 681.727 190.19 681.662 190.256C681.598 190.322 681.522 190.375 681.437 190.411C681.353 190.446 681.262 190.465 681.171 190.465H676.201C675.991 190.465 675.791 190.38 675.642 190.23C675.494 190.08 675.411 189.877 675.411 189.665V187.695C675.409 187.57 675.369 187.449 675.296 187.347C675.223 187.246 675.121 187.17 675.004 187.128C674.886 187.087 674.758 187.082 674.638 187.116C674.518 187.149 674.411 187.219 674.331 187.315C671.484 190.828 667.844 191.991 663.411 190.805C661.238 190.225 659.631 188.958 658.591 187.005C657.938 185.785 657.581 183.748 657.521 180.895C657.414 175.375 657.424 169.821 657.551 164.235L663.471 164.425C663.63 164.43 663.781 164.496 663.893 164.61C664.005 164.723 664.068 164.875 664.071 165.035C664.111 171.415 664.111 176.058 664.071 178.965C664.031 181.525 664.288 183.195 664.841 183.975C667.871 188.205 673.431 185.355 674.911 181.485C674.951 181.379 674.971 181.27 674.971 181.165L675.061 164.915C675.064 164.772 675.118 164.635 675.213 164.528C675.308 164.42 675.438 164.348 675.581 164.325C677.754 164.018 679.788 164.075 681.681 164.495Z" fill="white"/>
<path d="M448.471 180.845C452.519 180.845 455.801 177.563 455.801 173.515C455.801 169.467 452.519 166.185 448.471 166.185C444.423 166.185 441.141 169.467 441.141 173.515C441.141 177.563 444.423 180.845 448.471 180.845Z" fill="white"/>
<path d="M949.851 202.165C947.044 206.498 943.151 209.298 938.171 210.565L949.851 202.165Z" fill="#411E88"/>
</svg>
