<svg id="Group_2308" data-name="Group 2308" xmlns="http://www.w3.org/2000/svg" width="30" height="29" viewBox="0 0 30 29">
  <rect id="Rectangle_1432" data-name="Rectangle 1432" width="30" height="29" fill="#8246e4"/>
  <g id="YMZX6w.tif" transform="translate(0.319 -0.23)">
    <path id="Path_1600" data-name="Path 1600" d="M24.362,19.764v.174a1.2,1.2,0,0,1-.591.8l-2.72,1.578L19.7,23.1a.765.765,0,0,1-.436.126h-.416a.687.687,0,0,1-.387-.106l-3.1-1.8-.968-.571a1.239,1.239,0,0,1-.678-1.1V18.041a.077.077,0,0,1,0-.068L15.649,16.9h0v1.6a1.23,1.23,0,0,0,.649,1.065c.716.416,1.423.842,2.149,1.239a1.22,1.22,0,0,0,1.268,0l2.062-1.239a1.239,1.239,0,0,0,.62-.862,1.2,1.2,0,0,0,0-.261V16.027a1.259,1.259,0,0,0-.678-1.171c-.7-.4-1.384-.813-2.081-1.2a1.191,1.191,0,0,0-1.278,0l-4.066,2.362c-1.113.649-2.227,1.307-3.35,1.936a1.239,1.239,0,0,1-1.317,0L6.113,15.921c-.194-.116-.4-.223-.591-.349A1.259,1.259,0,0,1,5,14.72a1.113,1.113,0,0,1,0-.184V9.793a1.075,1.075,0,0,1,.532-.968c.29-.184.6-.349.9-.523L9.715,6.366c.1-.058.2-.087.3-.136h.755l.242.116,1.239.736c.968.542,1.859,1.084,2.779,1.636a1.2,1.2,0,0,1,.62,1.055v1.685a.068.068,0,0,1,0,.058l-1.936,1.065h0V10.993a1.055,1.055,0,0,0,0-.145,1.23,1.23,0,0,0-.581-.968C12.406,9.444,11.69,9,10.963,8.573a1.239,1.239,0,0,0-1.278,0L7.536,9.8a1.23,1.23,0,0,0-.6,1.123v2.469a.968.968,0,0,0,0,.165,1.191,1.191,0,0,0,.581.92l1.936,1.21a2.391,2.391,0,0,0,.445.223,1.23,1.23,0,0,0,1.026-.106l1.53-.92c.61-.358,1.21-.736,1.839-1.075.445-.242.9-.484,1.346-.745.968-.542,1.859-1.1,2.8-1.646a1.22,1.22,0,0,1,1.268,0l4.056,2.333a1.278,1.278,0,0,1,.6.765q0,.1,0,.2Z" fill="#fff"/>
  </g>
</svg>
