<svg xmlns="http://www.w3.org/2000/svg" width="30" height="29" viewBox="0 0 30 29">
  <g id="Group_2324" data-name="Group 2324" transform="translate(13038 12791)">
    <g id="Group_2308" data-name="Group 2308" transform="translate(-13038 -12791)">
      <rect id="Rectangle_1432" data-name="Rectangle 1432" width="30" height="29" fill="#26a17b"/>
    </g>
    <path id="Path_1612" data-name="Path 1612" d="M15,7.32h6.32c.33,0,.33,0,.33.33v2.68c0,.31,0,.31-.31.31H17.11c-.32,0-.32,0-.32.31v1.47c0,.28,0,.28.3.3a20.38,20.38,0,0,1,4.85.72,5.89,5.89,0,0,1,1.32.56c.62.36.61.86,0,1.26a5.39,5.39,0,0,1-1.81.69,18.94,18.94,0,0,1-3.09.49c-.45,0-.91.09-1.36.11-.19,0-.22.1-.22.26V23c0,.32,0,.32-.31.32h-3c-.2,0-.26-.05-.26-.26V16.84c0-.2,0-.29-.25-.3a12.83,12.83,0,0,1-1.38-.11,15.75,15.75,0,0,1-4.29-.88,3.35,3.35,0,0,1-.8-.55.51.51,0,0,1-.11-.71l.11-.11a3.9,3.9,0,0,1,.94-.56A10.88,10.88,0,0,1,10.24,13c.91-.11,1.83-.17,2.74-.25.16,0,.26-.06.25-.25V10.91c0-.2-.07-.24-.24-.24H8.69c-.33,0-.33,0-.33-.32V7.64c0-.32,0-.32.34-.32ZM15.37,16c1-.07,2.29-.12,3.58-.26a25.159,25.159,0,0,0,2.57-.46,2.44,2.44,0,0,0,1.12-.51.35.35,0,0,0,.11-.48.38.38,0,0,0-.11-.11,1.36,1.36,0,0,0-.38-.24c-.48-.18-1-.33-1.46-.46A25.47,25.47,0,0,0,17,13c-.16,0-.21,0-.21.2v2c0,.15,0,.21-.2.22H13.45c-.17,0-.23-.07-.23-.24V13.27c0-.21-.07-.26-.27-.24a5.93,5.93,0,0,0-.94.08c-1,.13-2,.26-3,.43a3.68,3.68,0,0,0-1.57.57c-.35.24-.35.51,0,.74a3.76,3.76,0,0,0,.79.36,16.89,16.89,0,0,0,4,.66C13.2,15.92,14.12,15.93,15.37,16Z" transform="translate(-13038.002 -12791.32)" fill="#fff"/>
  </g>
</svg>
