<svg id="Group_2308" data-name="Group 2308" xmlns="http://www.w3.org/2000/svg" width="30" height="29" viewBox="0 0 30 29">
  <rect id="Rectangle_1432" data-name="Rectangle 1432" width="30" height="29" fill="#ff2424"/>
  <path id="Path_40" data-name="Path 40" d="M8.489,7.63h.2l1.16.2,1.4.247,1.418.258,1.4.258,1.3.236,1.493.269,1.568.29,1.708.322.677.118a.934.934,0,0,1,.29.15l.58.526,1.944,1.869.344.322a.612.612,0,0,1,.2.526l-.064.172a3.115,3.115,0,0,1-.419.569l-2.567,3.147L18.091,20.8,15.47,24.02l-.387.462a.5.5,0,0,1-.107.107.161.161,0,0,1-.215,0h0a.569.569,0,0,1-.129-.15l-.129-.344-1.074-2.631-2.578-6.2c-.709-2.062-1.59-4.017-2.374-6.015-.129-.333-.258-.666-.376-1.01a.462.462,0,0,1,.279-.6h.107ZM9.778,9.488h0l5.048,12.341.086-.741A6.137,6.137,0,0,1,15,20.325c.032-.258.064-.5.086-.763l.107-.795.1-.827.1-.838.1-.827a6.609,6.609,0,0,1,.107-.913l.1-.838a.075.075,0,0,0,0-.064l-1.944-1.643-3.6-3.072Zm6.068,12.33h0L22.43,13.9h-.064l-.548.1-1.02.161-1.128.183-1.074.172-1.074.172-.806.129h0l-.064.526-.1.752-.086.752a5.75,5.75,0,0,1-.086.752,3.587,3.587,0,0,1-.086.752l-.1.752a5.75,5.75,0,0,1-.086.752l-.1.827-.1.838a1.922,1.922,0,0,1,0,.258Zm3.791-11.127L10.551,9.015h0l5.606,4.6Zm-2.2,3.1h0L22.6,12.85l-1.923-1.772Z" transform="translate(-1.122 -1.63)" fill="#fff"/>
</svg>
