<svg id="Group_2308" data-name="Group 2308" xmlns="http://www.w3.org/2000/svg" width="30" height="29" viewBox="0 0 30 29">
  <rect id="Rectangle_1432" data-name="Rectangle 1432" width="30" height="29" fill="#0286ff"/>
  <g id="Group_2320" data-name="Group 2320" transform="translate(-708.812 -82)">
    <path id="Path_1614" data-name="Path 1614" d="M13.8,19.153v-.538a.063.063,0,0,0-.053-.062,4.71,4.71,0,0,1-.882-.229,2.576,2.576,0,0,1-1.42-1.252,2.8,2.8,0,0,1-.273-.882.353.353,0,0,1,.37-.406h.811a.362.362,0,0,1,.362.3,1.923,1.923,0,0,0,.194.547,1.323,1.323,0,0,0,.785.609,3.1,3.1,0,0,0,.7.115,2.47,2.47,0,0,0,.767-.079,1.447,1.447,0,0,0,.882-.626,1.314,1.314,0,0,0,.15-.794.882.882,0,0,0-.335-.644,1.614,1.614,0,0,0-.441-.229,5.08,5.08,0,0,0-1.094-.265,6.88,6.88,0,0,1-1.535-.362,2.646,2.646,0,0,1-.882-.5,1.9,1.9,0,0,1-.556-1.076,2.946,2.946,0,0,1,0-.732,2.17,2.17,0,0,1,.759-1.552,2.9,2.9,0,0,1,1.447-.7h.115c.053,0,.071,0,.071-.079V8.683a.441.441,0,0,1,.326-.423h.767a.441.441,0,0,1,.45.45V9.733c0,.088,0,.088.088.106a2.487,2.487,0,0,1,1.147.45,2.443,2.443,0,0,1,.961,1.508.344.344,0,0,1-.265.441h-.882a.37.37,0,0,1-.379-.265,1.685,1.685,0,0,0-.247-.485,1.244,1.244,0,0,0-.759-.459,2.9,2.9,0,0,0-.829-.053,2.038,2.038,0,0,0-.6.132.97.97,0,0,0-.617.811,1.288,1.288,0,0,0,.044.582.882.882,0,0,0,.547.565,2.964,2.964,0,0,0,.829.229c.467.079.935.123,1.394.238a3.528,3.528,0,0,1,1.173.485,1.879,1.879,0,0,1,.794,1.217,3.237,3.237,0,0,1,.062.882,2.47,2.47,0,0,1-.882,1.764,3.184,3.184,0,0,1-1.455.662c-.088,0-.088,0-.088.106v1.032a.432.432,0,0,1-.45.45h-.653a.432.432,0,0,1-.362-.185.335.335,0,0,1-.079-.221Z" transform="translate(709.264 82.296)" fill="#fff"/>
    <path id="Path_1615" data-name="Path 1615" d="M24.171,13.864a4.986,4.986,0,0,1-.053.882,8.82,8.82,0,0,1-2,4.789,8.52,8.52,0,0,1-2.417,2.02,8.432,8.432,0,0,1-1.685.741l-.159.062a.326.326,0,0,1-.362-.2.52.52,0,0,1-.044-.194v-.688a.5.5,0,0,1,.362-.512,7.321,7.321,0,0,0,2.214-1.314,6.933,6.933,0,0,0,1.7-2.143,7.78,7.78,0,0,0,.741-2.152,6.4,6.4,0,0,0,.079-.706,7.666,7.666,0,0,0,0-.882,7.541,7.541,0,0,0-.2-1.729A7.268,7.268,0,0,0,20.855,9.1a6.959,6.959,0,0,0-2.337-1.764,5.063,5.063,0,0,0-.635-.265.706.706,0,0,1-.379-.547V5.767c0-.15.132-.388.3-.388a.282.282,0,0,1,.15,0,9.032,9.032,0,0,1,2.628,1.429A8.909,8.909,0,0,1,23.933,12.1a9.359,9.359,0,0,1,.176,1C24.109,13.361,24.153,13.635,24.171,13.864Z" transform="translate(708.523 82.637)" fill="#fff"/>
    <path id="Path_1616" data-name="Path 1616" d="M4.93,13.8a4.553,4.553,0,0,1,.053-.838A8.765,8.765,0,0,1,9.675,6a9.464,9.464,0,0,1,1.376-.582l.159-.053a.318.318,0,0,1,.362.2.5.5,0,0,1,0,.194v.7a.52.52,0,0,1-.362.512A7.127,7.127,0,0,0,9.04,8.28a6.933,6.933,0,0,0-1.7,2.143A7.444,7.444,0,0,0,6.632,12.4a7.056,7.056,0,0,0-.115.882,7.815,7.815,0,0,0,0,.882,7.25,7.25,0,0,0,.309,1.764,7.462,7.462,0,0,0,1.208,2.355,7.224,7.224,0,0,0,2.32,1.967,8.714,8.714,0,0,0,.882.415.6.6,0,0,1,.362.52v.67a.52.52,0,0,1-.141.326.282.282,0,0,1-.318.062,10.056,10.056,0,0,1-1.464-.609,8.891,8.891,0,0,1-3.8-3.925,8.406,8.406,0,0,1-.741-2.232,7.383,7.383,0,0,1-.141-.988A2.7,2.7,0,0,0,4.93,13.8Z" transform="translate(710 82.638)" fill="#fff"/>
  </g>
</svg>
